<svg xmlns="http://www.w3.org/2000/svg" viewBox="-110 -11795 16 12"><defs><style>.a{fill:#027}.c{fill:#fff}.d{fill:#cf1e2b}</style><clipPath id="a"><path class="a" d="M0 0h16v12H0z"/></clipPath></defs><path class="a" d="M-110-11795h16v12h-16z"/><g clip-path="url(#a)" transform="translate(-110 -11795)"><path class="c" d="M7 7.059L.541 12 0 10.941 6.459 6zm1-3.118L1.541-1 1 .059 7.459 5zm2 0L16.459-1 17 .059 10.541 5z"/><path class="d" d="M10 6.866L1.556 12 1 11.134 9.444 6z"/><path class="d" d="M8 6.866L16.444 12l.556-.866L8.556 6z"/><path class="c" d="M7 7.01L15.444 13 16 11.99 7.556 6z"/><path class="d" d="M8 4.99L-.444-1-1 .01 7.444 6z"/><path class="d" d="M6 4.99L14.444-1 15 .01 6.556 6zm9 .144l.556.866L24 .866 23.444 0z"/><path class="c" d="M0 4h16v1H0zm0 3h16v1H0z"/><path class="c" d="M6 0h4v12H6z"/><path class="d" d="M7 0h2v12H7z"/><path class="d" d="M0 5h16v2H0z"/></g></svg>