<svg id="Слой_1" xmlns="http://www.w3.org/2000/svg" viewBox="0 0 39.6 62.8"><style>.st0{fill:#ff8a4d}.st1{fill:#0047ab}</style><g id="XMLID_599_"><g id="Group-2_3_" transform="translate(466 100)"><g id="Logo_3_" transform="translate(225)"><path id="Fill-3_3_" class="st0" d="M-686.6-89.3c-.9 0-1.7-.7-1.7-1.6 0-.9.8-1.6 1.7-1.6.9 0 1.7.7 1.7 1.6 0 .8-.8 1.6-1.7 1.6m30.8-3.3c.9 0 1.7.7 1.7 1.6 0 .9-.8 1.6-1.7 1.6-.9 0-1.7-.7-1.7-1.6 0-.9.8-1.6 1.7-1.6m-30.5 16.2l2.7 2.7h5.2v3.1l5.9 5.7.1 7.9h2.7v-8l5.8-5.6v-3.1h5.2l2.7-2.6c.4.1.7.2 1.1.2 1.9 0 3.4-1.5 3.4-3.3 0-1.8-1.5-3.3-3.4-3.3s-3.4 1.5-3.4 3.3c0 .5.1.9.3 1.3l-1.8 1.8h-4.1V-81l6.2-6.1c.6.3 1.3.5 2 .5 2.4 0 4.4-1.9 4.4-4.3s-2-4.3-4.4-4.3c-2.4 0-4.4 1.9-4.4 4.3 0 .7.2 1.4.5 1.9l-7 6.8v10.5l-3.1 3v-22.9c1.8-.6 3-2.2 3-4.1 0-2.4-2-4.3-4.4-4.3-2.4 0-4.4 1.9-4.4 4.3 0 1.9 1.3 3.5 3 4.1v23.1l-3.2-3.1v-10.5l-7-6.8c.3-.6.5-1.2.5-1.9 0-2.4-2-4.3-4.4-4.3s-4.4 1.9-4.4 4.3 2 4.3 4.4 4.3c.7 0 1.4-.2 2-.5l6.2 6.1v4.7h-4.1l-1.9-1.9c.2-.4.2-.8.2-1.2 0-1.8-1.5-3.3-3.4-3.3s-3.4 1.5-3.4 3.3c0 1.8 1.5 3.3 3.4 3.3.5-.1.9-.2 1.3-.4z"/><path id="Fill-5_3_" class="st0" d="M-673.4-55.3c-1.1-1.1-2.5-1.7-4-1.7h-6.9v2.7h6.9c.8 0 1.5.3 2.1.9 1.2 1.2 2.7 1.7 4.2 1.7s3.1-.6 4.3-1.8c.6-.6 1.3-.9 2.1-.9h6.6V-57h-6.6c-1.5 0-3 .6-4.1 1.7-1.2 1.2-3.3 1.2-4.6 0z"/></g></g><g id="XMLID_600_"><path id="XMLID_620_" class="st1" d="M1.9 62.6v-9.9h2.5l2.7 4.6c.1.2.2.4.4.7.1.3.2.5.3.7l.2.3c-.1-.7-.1-1.3-.1-1.7v-4.6h2.4v9.9H7.9L5.1 58c-.1-.2-.2-.4-.4-.7-.1-.3-.2-.5-.3-.7l-.1-.3c0 .7.1 1.3.1 1.7v4.6H1.9z"/><path id="XMLID_606_" class="st1" d="M11.3 62.6l3.4-9.9h2.5l3.4 9.9h-2.5l-.6-2.1h-3.1l-.6 2.1h-2.5zm3.6-4h2l-.6-1.9-.4-1.7c-.1.7-.3 1.3-.4 1.7l-.6 1.9z"/><path id="XMLID_604_" class="st1" d="M20.9 61.4l1.3-1.8c.3.3.7.5 1.1.7.4.2.9.3 1.3.3.3 0 .6-.1.8-.2.2-.1.3-.3.3-.5s-.1-.4-.3-.6c-.2-.2-.5-.3-.8-.5-.3-.1-.7-.3-1.1-.5-.4-.2-.7-.4-1.1-.6-.3-.2-.6-.5-.8-.9-.2-.4-.3-.8-.3-1.3 0-.9.3-1.6 1-2.2.7-.6 1.5-.8 2.6-.8 1.2 0 2.3.4 3.1 1.1l-1 2c-.3-.2-.6-.5-1-.6-.4-.2-.8-.2-1.2-.2-.4 0-.6.1-.8.2-.2.1-.3.3-.3.5s.1.4.3.6c.2.2.5.3.8.4.3.1.7.3 1.1.4.4.2.7.4 1.1.6.3.2.6.5.8.9.2.4.3.8.3 1.3 0 .9-.3 1.6-.9 2.2-.6.6-1.5.9-2.6.9-.7 0-1.3-.1-1.9-.4-.8-.2-1.4-.6-1.8-1z"/><path id="XMLID_601_" class="st1" d="M29.5 62.6v-9.9H33c1.6 0 2.8.4 3.7 1.3.9.9 1.4 2.1 1.4 3.6 0 1.6-.5 2.8-1.4 3.6-.9.9-2.2 1.3-3.7 1.3h-3.5zm2.4-2.1h1c.8 0 1.5-.2 2-.7.5-.5.7-1.2.7-2.1 0-.9-.2-1.6-.7-2.1-.5-.5-1.1-.7-2-.7h-1v5.6z"/></g></g></svg>