<svg id="Слой_1" xmlns="http://www.w3.org/2000/svg" xmlns:xlink="http://www.w3.org/1999/xlink" viewBox="0 0 108.6 39.4"><style>.st2{fill:#3a3a3a}</style><g id="XMLID_231_"><g id="XMLID_190_"><defs><path id="XMLID_191_" d="M3.9 19.2l2.3 2.2h4.3v2.5l4.9 4.7V35h2.2v-6.4l4.8-4.6v-2.5h4.3l2.2-2.1c.3.1.6.2.9.2 1.6 0 2.8-1.2 2.8-2.7 0-1.5-1.3-2.7-2.8-2.7-1.5 0-2.8 1.2-2.8 2.7 0 .4.1.7.2 1.1l-1.5 1.4h-3.4v-3.9l5.1-4.9c.5.2 1 .4 1.6.4 2 0 3.6-1.6 3.6-3.5S31 4 29 4s-3.6 1.6-3.6 3.5c0 .6.2 1.1.4 1.6L20 14.7V23l-2.5 2.4V6.8c1.5-.4 2.6-1.8 2.6-3.3 0-1.9-1.6-3.5-3.6-3.5s-3.6 1.6-3.6 3.5c0 1.6 1.1 2.9 2.5 3.3v18.8L12.7 23v-8.5L6.9 8.9c.3-.5.4-1 .4-1.6 0-1.9-1.6-3.5-3.6-3.5S0 5.4 0 7.4c0 1.9 1.6 3.5 3.6 3.5.6 0 1.1-.1 1.6-.4l5.1 4.9v3.9H7.1l-1.6-1.5c.1-.3.2-.6.2-1 0-1.5-1.3-2.7-2.8-2.7-1.6 0-2.8 1.2-2.8 2.7 0 1.5 1.3 2.7 2.8 2.7.3-.1.7-.1 1-.3zM29.2 6c.8 0 1.4.6 1.4 1.3s-.6 1.3-1.4 1.3c-.8 0-1.4-.6-1.4-1.3S28.4 6 29.2 6M3.6 8.7c-.8 0-1.4-.6-1.4-1.3S2.9 6 3.6 6C4.4 6 5 6.6 5 7.4s-.6 1.3-1.4 1.3"/></defs><use xlink:href="#XMLID_191_" overflow="visible" fill-rule="evenodd" clip-rule="evenodd" fill="#3a3a3a"/><clipPath id="XMLID_2_"><use xlink:href="#XMLID_191_" overflow="visible"/></clipPath><path id="XMLID_195_" clip-path="url(#XMLID_2_)" fill="#3a3a3a" d="M-2.7-2.7h38.3v40.4H-2.7z"/></g><g id="XMLID_187_"><defs><path id="XMLID_188_" d="M14.4 36.4c-.9-.9-2.1-1.4-3.3-1.4H5.5v2.2h5.6c.6 0 1.3.3 1.7.7.9.9 2.2 1.4 3.4 1.4 1.3 0 2.5-.5 3.5-1.4.5-.5 1.1-.7 1.7-.7h5.4V35h-5.4c-1.2 0-2.4.5-3.3 1.4-1 1-2.7 1-3.7 0z"/></defs><use xlink:href="#XMLID_188_" overflow="visible" fill-rule="evenodd" clip-rule="evenodd" fill="#3a3a3a"/><clipPath id="XMLID_3_"><use xlink:href="#XMLID_188_" overflow="visible"/></clipPath><path id="XMLID_189_" clip-path="url(#XMLID_3_)" fill="#3a3a3a" d="M2.7 32.2h26.8V42H2.7z"/></g><path id="XMLID_170_" class="st2" d="M43.2 8.7V3.3h1.3v2.2h2V3.3h1.3v5.5h-1.3V6.6h-2v2.1h-1.3zm6 0l1.9-5.5h1.4l1.9 5.5H53l-.3-1.1H51l-.3 1.1h-1.5zm2.1-2.2h1.1l-.4-1-.2-.9c-.1.4-.2.7-.2.9l-.3 1zm4.4 2.2V3.3H57v4.3h2V3.3h1.3v4.3h.7v2.2h-1.2V8.7h-4.1zm6.9 0V3.3H64v5.5h-1.4zm3-2.7c0-.8.3-1.5.8-2s1.2-.8 2-.8 1.5.3 2 .8.8 1.2.8 2-.3 1.5-.8 2-1.2.8-2 .8-1.5-.3-2-.8-.8-1.2-.8-2zM67 6c0 .5.1.9.4 1.2.3.3.6.5 1 .5s.8-.2 1-.5c.4-.4.6-.8.6-1.2 0-.4-.1-.8-.4-1.1-.3-.3-.6-.5-1-.5s-.8.2-1 .5c-.4.3-.6.6-.6 1.1zm6 2.7V3.3h1.3v2.2h2V3.3h1.3v5.5h-1.3V6.6h-2v2.1H73zm6.1 0L81 3.2h1.4l1.9 5.5h-1.4l-.3-1.1h-1.7l-.3 1.1h-1.5zm2-2.2h1.1l-.3-1.1-.2-.9c-.1.4-.2.7-.2.9l-.4 1.1zm4 1.1c.2 0 .4-.1.6-.3.2-.1.3-.4.4-.8.1-.4.1-.9.1-1.5V3.3h3.7v5.5h-1.3V4.4h-1.1v.7c0 1.3-.2 2.3-.6 2.8-.4.6-1 .9-1.8.9V7.6zm6.8 1.1V3.3h1.3V5h.9c.5 0 1 .2 1.3.5.3.4.5.8.5 1.4 0 .6-.2 1-.5 1.4-.3.4-.8.5-1.3.5h-2.2zm1.3-1.1h.7c.2 0 .4-.1.5-.2.1-.1.2-.3.2-.5s-.1-.4-.2-.5c-.1-.1-.3-.2-.5-.2h-.7v1.4zm4.3 1.1V3.3h1.3v2.2h2V3.3h1.3v5.5h-1.3V6.6h-2v2.1h-1.3zm6 0l1.9-5.5h1.4l1.9 5.5h-1.4l-.3-1.1h-1.7l-.3 1.1h-1.5zm2-2.2h1.1l-.3-1.1-.2-.9c-.1.4-.2.7-.2.9l-.4 1.1z"/><path id="XMLID_157_" class="st2" d="M42.6 18.6l1.9-5.5h1.4l1.9 5.5h-1.4l-.4-1.2h-1.7l-.3 1.2h-1.4zm2-2.2h1.1l-.3-1.1-.2-.9c-.1.4-.2.7-.2.9l-.4 1.1zm4.5 2.2v-5.5h1.3v2.1h.6l1.1-2.1h1.4L52 15.7l1.6 2.8h-1.5L51 16.4h-.6v2.2h-1.3zm5.4 0l1.9-5.5h1.4l1.9 5.5h-1.4l-.3-1.1h-1.7l-.3 1.1h-1.5zm2-2.2h1.1l-.3-1.1-.2-.9c-.1.4-.2.7-.2.9l-.4 1.1zm4 1h.5c.5-.8.7-1.8.7-3v-1.3h3.7v4.3h.6v2.2h-1.2v-1.1h-3.2v1.1h-1.2v-2.2zm1.9 0h1.7v-3.2H63v.3c0 .5 0 1-.1 1.6-.1.5-.3 1-.5 1.3zm5.3 1.2v-5.5h3.4v1.1H69v1h1.7v1.1H69v1h2.2v1.1h-3.5zm5 0l.5-5.5h1.5l.8 2.3.3.9c.1-.4.2-.7.3-.9l.8-2.3h1.5l.4 5.5h-1.3l-.2-2.5v-.9c-.1.4-.2.7-.3.9l-.6 1.6h-1.1l-.6-1.6-.3-.9v.9l-.2 2.5h-1.5zm7.8 0v-5.5h1.3v5.5h-1.3zm2.8 0l1-1.8.2-.3c-.6-.3-.9-.9-.9-1.6 0-.4.1-.7.3-1 .2-.3.4-.5.7-.6.2-.1.6-.1 1.1-.1h1.9v5.5h-1.3v-1.8h-.5l-1 1.8h-1.5zm1.7-3.7c0 .5.2.7.7.7h.6v-1.4h-.5c-.3 0-.5.1-.6.2-.1.1-.2.3-.2.5z"/><path id="XMLID_141_" class="st2" d="M43.2 28.4V23h1.3v2.2h2V23h1.3v5.5h-1.3v-2.1h-2v2.1h-1.3zm6 0l1.9-5.5h1.4l1.9 5.5H53l-.3-1.1H51l-.3 1.1h-1.5zm2.1-2.2h1.1l-.4-1.1-.2-.9c-.1.4-.2.7-.2.9l-.3 1.1zm5.5 2.3c-.4 0-.9-.1-1.2-.4l.6-1c.2.2.4.3.6.3.2 0 .4-.1.4-.3L55 23h1.5l.9 2 .3.7c.1-.2.1-.5.2-.7l.7-2H60l-1.6 4.1c-.1.2-.2.4-.2.5-.1.1-.2.3-.3.5-.1.2-.3.3-.5.4h-.6zm4.5-.1V23h1.3v2.1h.6l1.1-2.1h1.4l-1.5 2.6 1.6 2.8h-1.5l-1.2-2.2h-.6v2.2h-1.2zm5.6-2.7c0-.8.3-1.5.8-2s1.2-.8 2-.8 1.5.3 2 .8.8 1.2.8 2-.3 1.5-.8 2-1.2.8-2 .8-1.5-.3-2-.8c-.6-.6-.8-1.2-.8-2zm1.4 0c0 .5.1.9.4 1.2.3.3.6.5 1 .5s.8-.2 1-.5c.3-.3.4-.7.4-1.2 0-.4-.1-.8-.4-1.1-.3-.3-.6-.5-1-.5s-.8.2-1 .5-.4.6-.4 1.1zm6 2.7V23h2c.6 0 1 .1 1.4.4.3.2.5.6.5 1.1 0 .2-.1.5-.2.7-.1.2-.3.4-.5.5.3.1.5.2.6.5.1.2.2.5.2.8 0 .6-.2 1-.6 1.2-.4.3-.9.4-1.5.4h-1.9zm1.3-3.3h.7c.2 0 .3 0 .4-.1.1-.1.1-.2.1-.4 0-.1 0-.2-.1-.3-.1-.1-.2-.1-.4-.1h-.7v.9zm0 2.2h.8c.2 0 .3-.1.4-.2.1-.1.2-.2.2-.4s0-.3-.1-.4c-.1-.1-.2-.2-.4-.2h-.8v1.2zm4.1-1.6c0-.8.3-1.5.8-2s1.2-.8 2-.8 1.5.3 2 .8.8 1.2.8 2-.3 1.5-.8 2-1.2.8-2 .8-1.5-.3-2-.8c-.5-.6-.8-1.2-.8-2zm1.4 0c0 .5.1.9.4 1.2.3.3.6.5 1 .5s.8-.2 1-.5c.3-.3.4-.7.4-1.2 0-.4-.1-.8-.4-1.1-.3-.3-.6-.5-1-.5s-.8.2-1 .5c-.2.2-.4.6-.4 1.1zm6 2.7V23h3.4v1.1h-2v4.3h-1.4zm4.4-2.7c0-.8.3-1.5.8-2s1.2-.8 2-.8 1.5.3 2 .8.8 1.2.8 2-.3 1.5-.8 2-1.2.8-2 .8-1.5-.3-2-.8c-.5-.6-.8-1.2-.8-2zm1.4 0c0 .5.1.9.4 1.2.3.3.6.5 1 .5s.8-.2 1-.5c.3-.3.4-.7.4-1.2 0-.4-.1-.8-.4-1.1-.3-.3-.6-.5-1-.5s-.8.2-1 .5c-.3.2-.4.6-.4 1.1z"/><path id="XMLID_78_" class="st2" d="M43.2 38.3v-5.5h2.3c.5 0 1 .2 1.3.5.3.4.5.8.5 1.4 0 .6-.2 1-.5 1.4-.3.4-.8.5-1.3.5h-.9v1.7h-1.4zm1.3-2.9h.7c.2 0 .4-.1.5-.2.1-.1.2-.3.2-.5s-.1-.4-.2-.5c-.1-.1-.3-.2-.5-.2h-.7v1.4zm4 .1c0-.8.3-1.5.8-2s1.2-.8 2-.8 1.5.3 2 .8.8 1.2.8 2-.3 1.5-.8 2-1.2.8-2 .8-1.5-.3-2-.8-.8-1.2-.8-2zm1.4 0c0 .5.1.9.4 1.2.3.3.6.5 1 .5s.8-.2 1-.5c.3-.3.4-.7.4-1.2 0-.4-.1-.8-.4-1.1-.3-.3-.6-.5-1-.5s-.8.2-1 .5c-.3.3-.4.6-.4 1.1zm7.4 2.9c-.8 0-1.5-.3-2-.8l.7-.9c.4.4.8.5 1.2.5.5 0 .7-.2.7-.6 0-.4-.2-.5-.6-.5h-.7V35h.5c.2 0 .3-.1.5-.2.1-.1.2-.2.2-.4s-.1-.3-.2-.4c-.1-.1-.3-.2-.5-.2-.4 0-.8.2-1.1.5l-.5-1c.5-.4 1.1-.6 1.9-.6.3 0 .6.1.8.2.3.1.5.3.7.5.2.2.3.5.3.9 0 .5-.2.9-.7 1.2.3.1.5.2.6.5.2.2.2.5.2.8 0 .5-.2.9-.6 1.2-.4.2-.8.4-1.4.4zm3.7-.1v-5.5h2c.6 0 1 .1 1.4.4.3.2.5.6.5 1.1 0 .2-.1.5-.2.7-.1.2-.3.4-.5.5.3.1.5.2.6.5.1.2.2.5.2.8 0 .6-.2 1-.6 1.2-.4.3-.9.4-1.5.4H61zm1.3-3.4h.7c.2 0 .3 0 .4-.1.1-.1.1-.2.1-.4 0-.1 0-.2-.1-.3-.1-.1-.2-.1-.4-.1h-.7v.9zm0 2.2h.8c.2 0 .3-.1.4-.2.1-.1.2-.2.2-.4s0-.3-.1-.4c-.2-.1-.3-.1-.5-.1h-.8v1.1zm4.4 1.2v-5.5H68v3.5c.2-.4.3-.7.5-.9l1.5-2.6h1.4v5.5H70v-2.5l.1-.9c-.2.4-.3.7-.5.9l-1.5 2.5h-1.4zm7.8 0V34h-1.7v-1.1h4.7V34h-1.7v4.3h-1.3zm4.5 0v-5.5h1.3v2.1h.6l1.1-2.1h1.4L82 35.4l1.6 2.8H82L80.9 36h-.6v2.2H79z"/><path id="XMLID_77_" class="st2" d="M86.1 38.4c-.4 0-.9-.1-1.2-.4l.6-1c.2.2.4.3.6.3.2 0 .4-.1.4-.3l-2.1-4.1h1.5l.9 2 .3.7c.1-.2.1-.5.2-.7l.7-2h1.4L87.8 37c-.1.2-.2.4-.2.5-.1.1-.2.3-.3.5-.1.2-.3.3-.5.4-.3-.1-.5 0-.7 0z"/></g></svg>