<svg xmlns="http://www.w3.org/2000/svg" xmlns:xlink="http://www.w3.org/1999/xlink" viewBox="0 0 100.7 45"><defs><path id="a" d="M4.3 22l2.5 2.5h4.7v2.9l5.4 5.3.1 7.3h2.5v-7.4l5.3-5.2v-2.9h4.7l2.5-2.4c.3.1.7.2 1 .2 1.7 0 3.1-1.4 3.1-3.1 0-1.7-1.4-3.1-3.1-3.1-1.7 0-3.1 1.4-3.1 3.1 0 .4.1.8.3 1.2L28.4 22h-3.7v-4.4l5.7-5.6c.5.3 1.2.4 1.8.4 2.2 0 4-1.8 4-4s-1.8-4-4-4-4 1.8-4 4c0 .7.2 1.3.5 1.8l-6.4 6.4v9.7l-2.8 2.8V7.8c1.6-.5 2.8-2 2.8-3.8 0-2.2-1.8-4-4-4s-4 1.8-4 4c0 1.8 1.2 3.3 2.8 3.8v21.5l-3-2.9v-9.7l-6.4-6.4c.3-.5.5-1.2.5-1.8 0-2.2-1.8-4-4-4s-4 1.8-4 4 1.8 4 4 4c.7 0 1.3-.2 1.8-.4l5.7 5.6V22H7.8L6 20.3c.1-.3.2-.7.2-1.1 0-1.7-1.4-3.1-3.1-3.1-1.7 0-3.1 1.4-3.1 3.1 0 1.7 1.4 3.1 3.1 3.1.5-.1.8-.2 1.2-.3zM32.2 6.9c.9 0 1.5.7 1.5 1.5s-.7 1.5-1.5 1.5c-.9 0-1.5-.7-1.5-1.5s.7-1.5 1.5-1.5M4 9.9c-.9 0-1.5-.7-1.5-1.5S3.2 6.9 4 6.9c.9 0 1.5.7 1.5 1.5S4.9 9.9 4 9.9"/></defs><use xlink:href="#a" overflow="visible" fill-rule="evenodd" clip-rule="evenodd" fill="#ff8a4d"/><clipPath id="b"><use xlink:href="#a" overflow="visible"/></clipPath><path clip-path="url(#b)" fill="#ff8a4d" d="M-5-5h46.3v50H-5z"/><defs><path id="c" d="M16.1 41.6c-1-1-2.3-1.5-3.7-1.5H6.1v2.5h6.3c.7 0 1.4.3 1.9.8 1.1 1.1 2.5 1.6 3.9 1.6s2.8-.5 3.9-1.6c.5-.5 1.2-.8 1.9-.8h6.1V40H24c-1.4 0-2.7.5-3.7 1.6-1.2 1.1-3.1 1.1-4.2 0z"/></defs><use xlink:href="#c" overflow="visible" fill-rule="evenodd" clip-rule="evenodd" fill="#ff8a4d"/><clipPath id="d"><use xlink:href="#c" overflow="visible"/></clipPath><path clip-path="url(#d)" fill="#ff8a4d" d="M1.1 35h34v15h-34z"/><path d="M46.5 27V12.7H50v5.7h5.2v-5.7h3.5V27h-3.5v-5.6H50V27h-3.5zm13.6 0L65 12.7h3.7L73.5 27h-3.6l-.9-3h-4.5l-.9 3h-3.5zm5.3-5.8h2.8l-.8-2.8-.6-2.4c-.2 1-.4 1.9-.6 2.5l-.8 2.7zm9.5 5.8V12.7h3.5v5.7h5.2v-5.7h3.5V27h-3.5v-5.6h-5.2V27h-3.5zm15.2 0V12.7H96c1.4 0 2.5.5 3.4 1.4s1.3 2.1 1.3 3.5c0 1.5-.4 2.6-1.3 3.6-.9.9-2 1.4-3.4 1.4h-2.4V27h-3.5zm3.5-7.4h1.7c.6 0 1-.2 1.3-.5.3-.4.5-.8.5-1.4 0-.6-.2-1.1-.5-1.4-.3-.3-.7-.5-1.3-.5h-1.8v3.8z" fill="#0047ab"/></svg>