<svg id="Слой_1" xmlns="http://www.w3.org/2000/svg" xmlns:xlink="http://www.w3.org/1999/xlink" viewBox="0 0 96.6 45"><style>.st2{fill:#0047ab}</style><g id="XMLID_575_"><g id="XMLID_587_"><g id="XMLID_592_"><defs><path id="XMLID_593_" d="M4.3 22l2.5 2.5h4.7v2.9l5.4 5.3.1 7.3h2.5v-7.4l5.3-5.2v-2.9h4.7l2.5-2.4c.3.1.7.2 1 .2 1.7 0 3.1-1.4 3.1-3.1 0-1.7-1.4-3.1-3.1-3.1-1.7 0-3.1 1.4-3.1 3.1 0 .4.1.8.3 1.2L28.4 22h-3.7v-4.4l5.7-5.6c.5.3 1.2.4 1.8.4 2.2 0 4-1.8 4-4s-1.8-4-4-4-4 1.8-4 4c0 .7.2 1.3.5 1.8l-6.4 6.4v9.7l-2.8 2.8V7.8c1.6-.5 2.8-2 2.8-3.8 0-2.2-1.8-4-4-4s-4 1.8-4 4c0 1.8 1.2 3.3 2.8 3.8v21.5l-3-2.9v-9.7l-6.4-6.4c.3-.5.5-1.2.5-1.8 0-2.2-1.8-4-4-4s-4 1.8-4 4 1.8 4 4 4c.7 0 1.3-.2 1.8-.4l5.7 5.6V22H7.8L6 20.3c.1-.3.2-.7.2-1.1 0-1.7-1.4-3.1-3.1-3.1-1.7 0-3.1 1.4-3.1 3.1 0 1.7 1.4 3.1 3.1 3.1.5-.1.8-.2 1.2-.3zM32.2 6.9c.9 0 1.5.7 1.5 1.5s-.7 1.5-1.5 1.5c-.9 0-1.5-.7-1.5-1.5s.7-1.5 1.5-1.5M4 9.9c-.9 0-1.5-.7-1.5-1.5S3.2 6.9 4 6.9s1.5.7 1.5 1.5S4.9 9.9 4 9.9"/></defs><use xlink:href="#XMLID_593_" overflow="visible" fill-rule="evenodd" clip-rule="evenodd" fill="#ff8a4d"/><clipPath id="XMLID_2_"><use xlink:href="#XMLID_593_" overflow="visible"/></clipPath><path id="XMLID_598_" clip-path="url(#XMLID_2_)" fill="#ff8a4d" d="M-5-5h46.3v50H-5z"/></g><g id="XMLID_588_"><defs><path id="XMLID_589_" d="M16.1 41.6c-1-1-2.3-1.5-3.7-1.5H6.1v2.5h6.3c.7 0 1.4.3 1.9.8 1.1 1.1 2.5 1.6 3.9 1.6s2.8-.5 3.9-1.6c.5-.5 1.2-.8 1.9-.8h6.1V40H24c-1.4 0-2.7.5-3.7 1.6-1.2 1.1-3.1 1.1-4.2 0z"/></defs><use xlink:href="#XMLID_589_" overflow="visible" fill-rule="evenodd" clip-rule="evenodd" fill="#ff8a4d"/><clipPath id="XMLID_3_"><use xlink:href="#XMLID_589_" overflow="visible"/></clipPath><path id="XMLID_590_" clip-path="url(#XMLID_3_)" fill="#ff8a4d" d="M1.1 35h34v15h-34z"/></g></g><g id="XMLID_576_"><path id="XMLID_585_" class="st2" d="M46.5 27V13.3h3.4l3.8 6.4c.2.3.3.6.5 1s.3.7.5 1l.2.4c-.1-1-.2-1.8-.2-2.3v-6.4h3.4V27h-3.4l-3.8-6.4c-.2-.3-.3-.6-.5-1s-.3-.7-.5-1l-.2-.4c.1 1 .2 1.8.2 2.3V27h-3.4z"/><path id="XMLID_582_" class="st2" d="M59.4 27l4.7-13.7h3.5L72.3 27h-3.5l-.8-2.9h-4.3l-.8 2.9h-3.5zm5.1-5.6h2.7l-.8-2.7-.6-2.4c-.2 1-.4 1.8-.6 2.4l-.7 2.7z"/><path id="XMLID_580_" class="st2" d="M72.7 25.3l1.8-2.6c.4.4 1 .7 1.6 1 .6.3 1.2.4 1.7.4.4 0 .8-.1 1-.3.2-.2.4-.4.4-.7 0-.3-.2-.6-.5-.8-.3-.2-.7-.5-1.1-.6-.4-.2-.9-.4-1.5-.6-.5-.3-1-.5-1.5-.8-.4-.3-.8-.7-1.1-1.2-.3-.5-.5-1.1-.5-1.8 0-1.3.5-2.3 1.4-3 .9-.8 2.1-1.2 3.6-1.2 1.7 0 3.1.5 4.3 1.6L81 17.3c-.4-.3-.9-.6-1.4-.9-.6-.2-1.1-.3-1.6-.3s-.9.1-1.1.3c-.2.2-.4.4-.4.7 0 .3.2.6.5.8.3.2.7.4 1.1.6.4.2.9.4 1.5.6.5.2 1 .5 1.5.8.4.3.8.7 1.1 1.2.3.5.5 1.1.5 1.8 0 1.2-.4 2.2-1.3 3.1-.9.8-2.1 1.2-3.6 1.2-.9 0-1.8-.2-2.7-.5-1-.3-1.7-.8-2.4-1.4z"/><path id="XMLID_577_" class="st2" d="M84.7 27V13.3h4.9c2.2 0 3.9.6 5.2 1.8 1.3 1.2 1.9 2.9 1.9 5s-.6 3.8-1.9 5.1c-1.3 1.2-3 1.8-5.2 1.8h-4.9zm3.4-2.9h1.4c1.2 0 2.1-.3 2.8-1 .7-.7 1-1.7 1-3s-.3-2.3-1-2.9c-.7-.7-1.6-1-2.7-1h-1.4v7.9z"/></g></g></svg>