<svg id="Слой_1" xmlns="http://www.w3.org/2000/svg" viewBox="0 0 39.6 62.6"><style>.st0{fill:#3a3a3a}</style><path id="XMLID_212_" class="st0" d="M.7 62.6v-10h2.5v4h3.7v-4h2.5v10.1H6.8v-4H3.1v4H.7z"/><path id="XMLID_214_" class="st0" d="M10.3 62.6l3.4-10.1h2.6l3.4 10.1h-2.5l-.6-2.1h-3.1l-.6 2.1h-2.6zm3.7-4h2l-.6-2-.4-1.7c-.2.7-.3 1.3-.4 1.7l-.6 2z"/><path id="XMLID_217_" class="st0" d="M20.8 62.6v-10h2.5v4H27v-4h2.5v10.1H27v-4h-3.7v4h-2.5z"/><path id="XMLID_219_" class="st0" d="M31.5 62.6v-10h4.2c1 0 1.8.3 2.4 1 .6.6.9 1.4.9 2.4s-.3 1.9-.9 2.5c-.6.7-1.4 1-2.4 1H34v3.1h-2.5zm2.5-5.2h1.2c.4 0 .7-.1 1-.4.2-.3.3-.6.3-1s-.1-.7-.3-1c-.2-.2-.5-.4-.9-.4H34v2.8z"/><g id="Group-2" transform="translate(466 100)"><g id="Logo" transform="translate(225)"><path id="Fill-3" class="st0" d="M-686.6-89.3c-.9 0-1.7-.7-1.7-1.6 0-.9.8-1.6 1.7-1.6.9 0 1.7.7 1.7 1.6 0 .8-.8 1.6-1.7 1.6m30.8-3.3c.9 0 1.7.7 1.7 1.6 0 .9-.8 1.6-1.7 1.6-.9 0-1.7-.7-1.7-1.6 0-.9.8-1.6 1.7-1.6m-30.5 16.2l2.7 2.7h5.2v3.1l5.9 5.7.1 7.9h2.7v-8l5.8-5.6v-3.1h5.2l2.7-2.6c.4.1.7.2 1.1.2 1.9 0 3.4-1.5 3.4-3.3 0-1.8-1.5-3.3-3.4-3.3s-3.4 1.5-3.4 3.3c0 .5.1.9.3 1.3l-1.8 1.8h-4.1V-81l6.2-6.1c.6.3 1.3.5 2 .5 2.4 0 4.4-1.9 4.4-4.3s-2-4.3-4.4-4.3c-2.4 0-4.4 1.9-4.4 4.3 0 .7.2 1.4.5 1.9l-7 6.8v10.5l-3.1 3v-22.9c1.8-.6 3-2.2 3-4.1 0-2.4-2-4.3-4.4-4.3-2.4 0-4.4 1.9-4.4 4.3 0 1.9 1.3 3.5 3 4.1v23.1l-3.2-3.1v-10.5l-7-6.8c.3-.6.5-1.2.5-1.9 0-2.4-2-4.3-4.4-4.3s-4.4 1.9-4.4 4.3 2 4.3 4.4 4.3c.7 0 1.4-.2 2-.5l6.2 6.1v4.7h-4.1l-1.9-1.9c.2-.4.2-.8.2-1.2 0-1.8-1.5-3.3-3.4-3.3s-3.4 1.5-3.4 3.3c0 1.8 1.5 3.3 3.4 3.3.5-.1.9-.2 1.3-.4z"/><path id="Fill-5" class="st0" d="M-673.4-55.3c-1.1-1.1-2.5-1.7-4-1.7h-6.9v2.7h6.9c.8 0 1.5.3 2.1.9 1.2 1.2 2.7 1.7 4.2 1.7s3.1-.6 4.3-1.8c.6-.6 1.3-.9 2.1-.9h6.6V-57h-6.6c-1.5 0-3 .6-4.1 1.7-1.2 1.2-3.3 1.2-4.6 0z"/></g></g></svg>