<svg id="Слой_1" xmlns="http://www.w3.org/2000/svg" xmlns:xlink="http://www.w3.org/1999/xlink" viewBox="0 0 108.3 39.4"><style>.st2{fill:#fff}</style><g id="XMLID_800_"><g id="XMLID_829_"><defs><path id="XMLID_830_" d="M3.9 19.2l2.3 2.2h4.3v2.5l4.9 4.7V35h2.2v-6.4l4.8-4.6v-2.5h4.3l2.2-2.1c.3.1.6.2.9.2 1.6 0 2.8-1.2 2.8-2.7 0-1.5-1.3-2.7-2.8-2.7-1.5 0-2.8 1.2-2.8 2.7 0 .4.1.7.2 1.1l-1.5 1.4h-3.4v-3.9l5.1-4.9c.5.2 1 .4 1.6.4 2 0 3.6-1.6 3.6-3.5S31 4 29 4s-3.6 1.6-3.6 3.5c0 .6.2 1.1.4 1.6L20 14.7V23l-2.5 2.4V6.8c1.5-.4 2.6-1.8 2.6-3.3 0-1.9-1.6-3.5-3.6-3.5s-3.6 1.6-3.6 3.5c0 1.6 1.1 2.9 2.5 3.3v18.8L12.7 23v-8.5L6.9 8.9c.3-.5.4-1 .4-1.6 0-1.9-1.6-3.5-3.6-3.5S0 5.4 0 7.4c0 1.9 1.6 3.5 3.6 3.5.6 0 1.1-.1 1.6-.4l5.1 4.9v3.9H7.1l-1.6-1.5c.1-.3.2-.6.2-1 0-1.5-1.3-2.7-2.8-2.7-1.6 0-2.8 1.2-2.8 2.7 0 1.5 1.3 2.7 2.8 2.7.3-.1.7-.1 1-.3zM29.2 6c.8 0 1.4.6 1.4 1.3s-.6 1.3-1.4 1.3c-.8 0-1.4-.6-1.4-1.3S28.4 6 29.2 6M3.6 8.7c-.8 0-1.4-.6-1.4-1.3S2.9 6 3.6 6 5 6.6 5 7.4s-.6 1.3-1.4 1.3"/></defs><use xlink:href="#XMLID_830_" overflow="visible" fill-rule="evenodd" clip-rule="evenodd" fill="#fff"/><clipPath id="XMLID_2_"><use xlink:href="#XMLID_830_" overflow="visible"/></clipPath><path id="XMLID_834_" clip-path="url(#XMLID_2_)" fill="#fff" d="M-2.7-2.7h38.3v40.4H-2.7z"/></g><g id="XMLID_826_"><defs><path id="XMLID_827_" d="M14.4 36.4c-.9-.9-2.1-1.4-3.3-1.4H5.5v2.2h5.6c.6 0 1.3.3 1.7.7.9.9 2.2 1.4 3.4 1.4 1.3 0 2.5-.5 3.5-1.4.5-.5 1.1-.7 1.7-.7h5.4V35h-5.4c-1.2 0-2.4.5-3.3 1.4-1 1-2.7 1-3.7 0z"/></defs><use xlink:href="#XMLID_827_" overflow="visible" fill-rule="evenodd" clip-rule="evenodd" fill="#fff"/><clipPath id="XMLID_3_"><use xlink:href="#XMLID_827_" overflow="visible"/></clipPath><path id="XMLID_828_" clip-path="url(#XMLID_3_)" fill="#fff" d="M2.7 32.2h26.8V42H2.7z"/></g></g><g id="XMLID_642_"><path id="XMLID_761_" class="st2" d="M43.2 8.7V3.4h1.3L46 5.8c.1.1.1.2.2.4s.1.3.2.4l.1.1c0-.4-.1-.7-.1-.9V3.4h1.3v5.3h-1.3l-1.5-2.5c-.1-.1-.1-.2-.2-.4s-.1-.3-.2-.4l-.1-.1c0 .4.1.7.1.9v2.5h-1.3z"/><path id="XMLID_758_" class="st2" d="M49.3 8.7l1.8-5.3h1.4l1.8 5.3H53l-.3-1.1H51l-.3 1.1h-1.4zm2-2.2h1l-.3-1-.2-.9c-.1.4-.2.7-.2.9l-.3 1z"/><path id="XMLID_756_" class="st2" d="M56.7 8.7V4.5H55V3.4h4.5v1.1H58v4.2h-1.3z"/><path id="XMLID_754_" class="st2" d="M61.3 8.7V3.4h1.3v2.1h1.9V3.4h1.3v5.3h-1.3V6.6h-1.9v2.1h-1.3z"/><path id="XMLID_752_" class="st2" d="M68.1 8.7V3.4h1.3v5.3h-1.3z"/><path id="XMLID_749_" class="st2" d="M71.3 6c0-.8.3-1.4.8-1.9s1.2-.8 2-.8 1.5.3 2 .8.8 1.2.8 1.9c0 .8-.3 1.5-.8 2s-1.2.8-2 .8-1.5-.3-2.1-.8c-.5-.6-.7-1.2-.7-2zm1.3 0c0 .5.1.8.4 1.1.3.3.6.5 1 .5s.8-.2 1-.5c.3-.3.4-.7.4-1.1 0-.4-.1-.8-.4-1.1-.3-.3-.6-.4-1-.4s-.8.1-1 .4c-.3.3-.4.7-.4 1.1z"/><path id="XMLID_747_" class="st2" d="M78.7 8.7V3.4H80l1.5 2.5c.1.1.1.2.2.4s.1.3.2.4l.1.1c0-.4-.1-.7-.1-.9V3.4h1.3v5.3h-1.3l-1.5-2.5c-.1-.1-.1-.2-.2-.4s-.1-.3-.2-.4v-.1 3.4h-1.3z"/><path id="XMLID_744_" class="st2" d="M84.9 8.7l1.8-5.3H88l1.8 5.3h-1.3l-.3-1.1h-1.7l-.3 1.1h-1.3zm1.9-2.2h1l-.3-1-.2-.9c-.1.4-.2.7-.2.9l-.3 1z"/><path id="XMLID_742_" class="st2" d="M91.5 8.7V3.4h1.3v4.2H95v1.1h-3.5z"/><path id="XMLID_722_" class="st2" d="M42.6 18.5l1.8-5.3h1.4l1.8 5.3h-1.3l-.3-1.1h-1.7l-.3 1.1h-1.4zm2-2.2h1l-.3-1-.2-.9c-.1.4-.2.7-.2.9l-.3 1z"/><path id="XMLID_720_" class="st2" d="M48.8 15.8c0-.8.3-1.4.8-2 .5-.5 1.2-.8 2-.8.4 0 .7.1 1.1.2.4.1.7.3.9.6l-.6 1c-.2-.2-.4-.3-.6-.4-.2-.1-.5-.2-.7-.2-.5 0-.9.1-1.1.4-.3.3-.4.7-.4 1.1 0 .4.1.8.4 1.1.3.3.6.5 1.1.5.5 0 1-.2 1.4-.7l.7 1c-.6.6-1.3.9-2.1.9s-1.5-.3-2-.8c-.6-.4-.9-1.1-.9-1.9z"/><path id="XMLID_717_" class="st2" d="M54.9 18.5l1.8-5.3h1.4l1.8 5.3h-1.3l-.3-1.1h-1.7l-.3 1.1h-1.4zm2-2.2h1l-.3-1-.2-.9c-.1.4-.2.7-.2.9l-.3 1z"/><path id="XMLID_714_" class="st2" d="M61.5 18.5v-5.3h1.9c.8 0 1.5.2 2 .7.5.5.7 1.1.7 1.9 0 .8-.2 1.5-.7 2-.5.5-1.2.7-2 .7h-1.9zm1.3-1.1h.5c.5 0 .8-.1 1.1-.4.3-.3.4-.7.4-1.2s-.1-.9-.4-1.1c-.3-.3-.6-.4-1.1-.4h-.5v3.1z"/><path id="XMLID_712_" class="st2" d="M68.1 18.5v-5.3h3.3v1.1h-2v1H71v1.1h-1.6v1h2.1v1.1h-3.4z"/><path id="XMLID_710_" class="st2" d="M73.3 18.5l.4-5.3h1.4l.8 2.2.3.9c.1-.4.2-.6.3-.9l.8-2.2h1.4l.4 5.3h-1.3l-.2-2.4v-.9c-.1.4-.2.7-.3.9l-.6 1.5h-1.1l-.6-1.5-.3-.9v.9l-.2 2.4h-1.2z"/><path id="XMLID_708_" class="st2" d="M82.1 18.5v-2.2l-1.8-3.1h1.5l.6 1.3.3.8c.1-.3.2-.5.3-.8l.6-1.3h1.5l-1.8 3.1v2.2h-1.2z"/><path id="XMLID_705_" class="st2" d="M89.1 15.8c0-.8.3-1.4.8-1.9s1.2-.8 2-.8 1.5.3 2 .8.8 1.2.8 1.9c0 .8-.3 1.5-.8 2s-1.2.8-2 .8-1.5-.3-2-.8c-.6-.6-.8-1.2-.8-2zm1.3 0c0 .5.1.8.4 1.1.3.3.6.5 1 .5s.8-.2 1-.5c.3-.3.4-.7.4-1.1 0-.4-.1-.8-.4-1.1-.3-.3-.6-.4-1-.4s-.8.1-1 .4c-.2.3-.4.7-.4 1.1z"/><path id="XMLID_703_" class="st2" d="M96.6 18.5v-5.3h3.3v1.1h-2v1.1h1.6v1.1h-1.6v2h-1.3z"/><path id="XMLID_701_" class="st2" d="M42.8 27.6l.7-1c.2.1.4.3.6.4.2.1.5.2.7.2.2 0 .3 0 .4-.1.1-.1.1-.2.1-.3 0-.1-.1-.2-.2-.3-.1-.1-.3-.2-.4-.2-.2-.1-.4-.1-.6-.2l-.6-.3c-.2-.1-.3-.3-.4-.5 0-.3-.1-.5-.1-.8 0-.5.2-.9.5-1.2.4-.3.8-.4 1.4-.4.7 0 1.2.2 1.7.6l-.6 1c-.2-.1-.3-.2-.5-.3-.2-.1-.4-.1-.6-.1-.2 0-.3 0-.4.1-.1.1-.1.2-.1.3 0 .1.1.2.2.3.1.1.3.2.4.2.2.1.4.1.6.2l.6.3c.2.1.3.3.4.5.1.2.2.4.2.7 0 .5-.2.9-.5 1.2-.3.3-.8.5-1.4.5-.4 0-.7-.1-1-.2-.5-.2-.8-.3-1.1-.6z"/><path id="XMLID_699_" class="st2" d="M48.3 25.6c0-.8.3-1.4.8-2 .5-.5 1.2-.8 2-.8.4 0 .7.1 1.1.2.4.1.7.3.9.6l-.6 1c-.2-.2-.4-.3-.6-.4-.2-.1-.5-.2-.7-.2-.5 0-.9.1-1.1.4-.3.3-.4.7-.4 1.1 0 .4.1.8.4 1.1.3.3.6.5 1.1.5.5 0 1-.2 1.4-.7l.7 1c-.6.6-1.3.9-2.1.9s-1.5-.3-2-.8c-.7-.4-.9-1.1-.9-1.9z"/><path id="XMLID_697_" class="st2" d="M55 28.3V23h1.3v5.3H55z"/><path id="XMLID_695_" class="st2" d="M58.5 28.3V23h3.3v1.1h-2v1h1.6v1.1h-1.6v1h2.1v1.1h-3.4z"/><path id="XMLID_693_" class="st2" d="M63.8 28.3V23h1.3l1.5 2.5c.1.1.1.2.2.4s.1.3.2.4l.1.1c0-.4-.1-.7-.1-.9V23h1.3v5.3H67l-1.5-2.5c-.1-.1-.1-.2-.2-.4s-.1-.3-.2-.4l-.1-.1c0 .4.1.7.1.9v2.5h-1.3z"/><path id="XMLID_691_" class="st2" d="M71.7 28.3v-4.2h-1.6V23h4.5v1.1H73v4.2h-1.3z"/><path id="XMLID_689_" class="st2" d="M76.3 28.3V23h1.3v5.3h-1.3z"/><path id="XMLID_687_" class="st2" d="M79.8 28.3V23h3.3v1.1h-2v1.1h1.6v1.1h-1.6v2h-1.3z"/><path id="XMLID_685_" class="st2" d="M84.9 28.3V23h1.3v5.3h-1.3z"/><path id="XMLID_683_" class="st2" d="M88.1 25.6c0-.8.3-1.4.8-2 .5-.5 1.2-.8 2-.8.4 0 .7.1 1.1.2.4.1.7.3.9.6l-.6 1c-.2-.2-.4-.3-.6-.4-.2-.1-.5-.2-.7-.2-.5 0-.9.1-1.1.4-.3.3-.4.7-.4 1.1 0 .4.1.8.4 1.1.3.3.6.5 1.1.5.5 0 1-.2 1.4-.7l.7 1c-.6.6-1.3.9-2.1.9s-1.5-.3-2-.8c-.6-.4-.9-1.1-.9-1.9z"/><path id="XMLID_680_" class="st2" d="M43.2 38.1v-5.3h1.9c.8 0 1.5.2 2 .7.5.5.7 1.1.7 1.9 0 .8-.2 1.5-.7 2-.5.5-1.2.7-2 .7h-1.9zm1.3-1.1h.5c.5 0 .8-.1 1.1-.4.3-.3.4-.7.4-1.2s-.1-.9-.4-1.1c-.3-.3-.6-.4-1.1-.4h-.5V37z"/><path id="XMLID_678_" class="st2" d="M49.8 38.1v-5.3h3.3v1.1h-2v1h1.6V36h-1.6v1h2.1v1.1h-3.4z"/><path id="XMLID_676_" class="st2" d="M56.4 38.1l-1.9-5.3h1.4l.9 3c0 .1.1.2.1.4 0 .1.1.3.1.3v.1c.1-.3.1-.6.2-.9l1-3h1.4L57.7 38h-1.3z"/><path id="XMLID_674_" class="st2" d="M61.2 38.1v-5.3h3.3v1.1h-2v1h1.6V36h-1.6v1h2.1v1.1h-3.4z"/><path id="XMLID_672_" class="st2" d="M66.6 38.1v-5.3h1.3V37h2.2v1.1h-3.5z"/><path id="XMLID_669_" class="st2" d="M71.4 35.4c0-.8.3-1.4.8-1.9s1.2-.8 2-.8 1.5.3 2 .8.8 1.2.8 1.9c0 .8-.3 1.5-.8 2s-1.2.8-2 .8-1.5-.3-2-.8c-.6-.6-.8-1.2-.8-2zm1.3 0c0 .5.1.8.4 1.1.3.3.6.5 1 .5s.8-.2 1-.5c.3-.3.4-.7.4-1.1 0-.4-.1-.8-.4-1.1-.3-.3-.6-.4-1-.4s-.8.1-1 .4c-.3.3-.4.7-.4 1.1z"/><path id="XMLID_666_" class="st2" d="M78.8 38.1v-5.3H81c.5 0 .9.2 1.3.5.3.3.5.8.5 1.3s-.2 1-.5 1.3c-.3.3-.7.5-1.3.5h-.9V38h-1.3zm1.3-2.8h.6c.2 0 .4-.1.5-.2.1-.1.2-.3.2-.5s-.1-.4-.2-.5c-.1-.1-.3-.2-.5-.2H80v1.4z"/><path id="XMLID_664_" class="st2" d="M84.4 38.1l.4-5.3h1.4L87 35l.3.9c.1-.4.2-.6.3-.9l.8-2.2h1.4l.4 5.3h-1.3l-.2-2.4v-.9c-.1.4-.2.7-.3.9l-.6 1.5h-1.1l-.6-1.5-.3-.9v.9l-.2 2.4h-1.2z"/><path id="XMLID_662_" class="st2" d="M92.2 38.1v-5.3h3.3v1.1h-2v1h1.6V36h-1.6v1h2.1v1.1h-3.4z"/><path id="XMLID_660_" class="st2" d="M97.6 38.1v-5.3h1.3l1.5 2.5c.1.1.1.2.2.4s.1.3.2.4l.1.1c0-.4-.1-.7-.1-.9v-2.5h1.3v5.3h-1.3l-1.5-2.5c-.1-.1-.1-.2-.2-.4s-.1-.3-.2-.4l-.1-.1c0 .4.1.7.1.9v2.5h-1.3z"/><path id="XMLID_643_" class="st2" d="M105.4 38.1v-4.2h-1.6v-1.1h4.5v1.1h-1.6v4.2h-1.3z"/></g></svg>