<svg width="103" height="45" xmlns="http://www.w3.org/2000/svg"><g fill="none" fill-rule="evenodd"><path d="M4.973 9.94a1.542 1.542 0 0 1-1.546-1.534c0-.847.693-1.535 1.546-1.535.853 0 1.547.688 1.547 1.535S5.826 9.94 4.973 9.94M33.17 6.87c.852 0 1.545.688 1.545 1.535S34.022 9.94 33.17 9.94a1.542 1.542 0 0 1-1.547-1.535c0-.847.694-1.535 1.547-1.535M5.23 22l2.494 2.473h4.745v2.873l5.384 5.344.052 7.309 2.483-.041v-7.367l5.284-5.245v-2.873h4.745l2.46-2.44c.32.111.66.184 1.018.184 1.714 0 3.104-1.379 3.104-3.08s-1.39-3.08-3.104-3.08c-1.714 0-3.103 1.379-3.103 3.08 0 .435.093.847.257 1.224l-1.66 1.648h-3.717v-4.412l5.682-5.64a4.018 4.018 0 0 0 1.815.447c2.222 0 4.03-1.792 4.03-4 0-2.204-1.808-3.999-4.03-3.999-2.223 0-4.031 1.795-4.031 4 0 .655.175 1.266.457 1.812l-6.406 6.36v9.749l-2.801 2.779V7.786C22 7.262 23.176 5.772 23.176 4c0-2.206-1.806-4-4.03-4-2.221 0-4.03 1.794-4.03 4 0 1.773 1.176 3.263 2.79 3.785v21.47l-2.953-2.928v-9.75l-6.407-6.359a3.935 3.935 0 0 0 .457-1.812c0-2.205-1.807-4-4.03-4-2.223 0-4.03 1.795-4.03 4 0 2.207 1.807 4 4.03 4 .656 0 1.266-.172 1.814-.447l5.683 5.639v4.412H8.754l-1.766-1.753a3.03 3.03 0 0 0 .22-1.12c0-1.7-1.39-3.08-3.104-3.08-1.714 0-3.104 1.38-3.104 3.08A3.091 3.091 0 0 0 5.231 22zm11.785 19.584a5.257 5.257 0 0 0-3.708-1.548H7v2.55h6.307c.715 0 1.413.29 1.92.801A5.425 5.425 0 0 0 19.093 45c1.416 0 2.836-.55 3.93-1.649a2.684 2.684 0 0 1 1.919-.803H31V40h-6.058c-1.4 0-2.716.55-3.745 1.584a2.945 2.945 0 0 1-4.182 0z" fill="#FF8A4D"/><path d="M47.41 27V12.7h3.5v5.72h5.2V12.7h3.5V27h-3.5v-5.6h-5.2V27h-3.5zm13.64 0l4.86-14.3h3.68L74.45 27h-3.6l-.88-3h-4.46l-.86 3h-3.6zm5.28-5.8h2.82l-.8-2.78-.58-2.46h-.04a33.756 33.756 0 0 1-.58 2.46l-.82 2.78zm9.56 5.8V12.7h3.5v5.72h5.2V12.7h3.5V27h-3.5v-5.6h-5.2V27h-3.5zm15.2 0V12.7h5.94c1.387 0 2.51.46 3.37 1.38.86.92 1.29 2.1 1.29 3.54 0 1.453-.43 2.643-1.29 3.57-.86.927-1.983 1.39-3.37 1.39h-2.44V27h-3.5zm3.5-7.42h1.72c.587 0 1.037-.18 1.35-.54.313-.36.47-.833.47-1.42s-.153-1.053-.46-1.4c-.307-.347-.74-.52-1.3-.52h-1.78v3.88z" fill="#FFF"/></g></svg>