<svg xmlns="http://www.w3.org/2000/svg" xmlns:xlink="http://www.w3.org/1999/xlink" viewBox="-110 -11795 16 12"><defs><style>.a{fill:#027;}.b{clip-path:url(#a);}.c{fill:#fff;}.d{fill:#cf1e2b;}</style><clipPath id="a"><rect class="a" width="16" height="12"/></clipPath></defs><g transform="translate(-110 -11795)"><rect class="a" width="16" height="12"/><g class="b"><path class="c" d="M7,1.059.541,6,0,4.941,6.459,0Z" transform="translate(0 6)"/><path class="c" d="M7-1.059.541-6,0-4.941,6.459,0Z" transform="translate(1 5)"/><path class="c" d="M7,1.059.541,6,0,4.941,6.459,0Z" transform="translate(17 5) rotate(-180)"/><path class="d" d="M9,.866.556,6,0,5.134,8.444,0Z" transform="translate(1 6)"/><path class="d" d="M9-.866.556-6,0-5.134,8.444,0Z" transform="translate(17 6) rotate(180)"/><path class="c" d="M9-1.01.556-7,0-5.99,8.444,0Z" transform="translate(16 6) rotate(180)"/><path class="d" d="M9-1.01.556-7,0-5.99,8.444,0Z" transform="translate(-1 6)"/><path class="d" d="M9,1.01.556,7,0,5.99,8.444,0Z" transform="translate(15 6) rotate(-180)"/><path class="d" d="M9-5.134,8.444-6,0-.866.556,0Z" transform="translate(24 0) rotate(180)"/><rect class="c" width="16" height="1" transform="translate(0 4)"/><rect class="c" width="16" height="1" transform="translate(0 7)"/><rect class="c" width="4" height="12" transform="translate(6)"/><rect class="d" width="2" height="12" transform="translate(7)"/><rect class="d" width="16" height="2" transform="translate(0 5)"/></g></g></svg>