<?xml version="1.0" encoding="utf-8"?>
<!-- Generator: Adobe Illustrator 21.1.0, SVG Export Plug-In . SVG Version: 6.00 Build 0)  -->
<svg version="1.1" id="Слой_1" xmlns="http://www.w3.org/2000/svg" xmlns:xlink="http://www.w3.org/1999/xlink" x="0px" y="0px"
	 viewBox="0 0 96.6 45" style="enable-background:new 0 0 96.6 45;" xml:space="preserve">
<style type="text/css">
	.st0{clip-path:url(#XMLID_2_);fill:#3A3A3A;}
	.st1{clip-path:url(#XMLID_3_);fill:#3A3A3A;}
	.st2{fill:#3A3A3A;}
</style>
<g id="XMLID_725_">
	<g id="XMLID_724_">
		<g id="XMLID_735_">
			<defs>
				<path id="XMLID_736_" d="M4.3,22l2.5,2.5h4.7v2.9l5.4,5.3L17,40l2.5,0v-7.4l5.3-5.2v-2.9h4.7l2.5-2.4c0.3,0.1,0.7,0.2,1,0.2
					c1.7,0,3.1-1.4,3.1-3.1c0-1.7-1.4-3.1-3.1-3.1c-1.7,0-3.1,1.4-3.1,3.1c0,0.4,0.1,0.8,0.3,1.2L28.4,22h-3.7v-4.4l5.7-5.6
					c0.5,0.3,1.2,0.4,1.8,0.4c2.2,0,4-1.8,4-4c0-2.2-1.8-4-4-4c-2.2,0-4,1.8-4,4c0,0.7,0.2,1.3,0.5,1.8l-6.4,6.4v9.7l-2.8,2.8V7.8
					c1.6-0.5,2.8-2,2.8-3.8c0-2.2-1.8-4-4-4c-2.2,0-4,1.8-4,4c0,1.8,1.2,3.3,2.8,3.8v21.5l-3-2.9v-9.7l-6.4-6.4
					c0.3-0.5,0.5-1.2,0.5-1.8c0-2.2-1.8-4-4-4s-4,1.8-4,4c0,2.2,1.8,4,4,4c0.7,0,1.3-0.2,1.8-0.4l5.7,5.6V22H7.8L6,20.3
					c0.1-0.3,0.2-0.7,0.2-1.1c0-1.7-1.4-3.1-3.1-3.1c-1.7,0-3.1,1.4-3.1,3.1c0,1.7,1.4,3.1,3.1,3.1C3.6,22.2,3.9,22.1,4.3,22z
					 M32.2,6.9c0.9,0,1.5,0.7,1.5,1.5s-0.7,1.5-1.5,1.5c-0.9,0-1.5-0.7-1.5-1.5S31.4,6.9,32.2,6.9 M4,9.9c-0.9,0-1.5-0.7-1.5-1.5
					S3.2,6.9,4,6.9s1.5,0.7,1.5,1.5S4.9,9.9,4,9.9"/>
			</defs>
			<use xlink:href="#XMLID_736_"  style="overflow:visible;fill-rule:evenodd;clip-rule:evenodd;fill:#3A3A3A;"/>
			<clipPath id="XMLID_2_">
				<use xlink:href="#XMLID_736_"  style="overflow:visible;"/>
			</clipPath>
			<rect id="XMLID_740_" x="-5" y="-5" class="st0" width="46.3" height="50"/>
		</g>
		<g id="XMLID_732_">
			<defs>
				<path id="XMLID_733_" d="M16.1,41.6c-1-1-2.3-1.5-3.7-1.5H6.1v2.6h6.3c0.7,0,1.4,0.3,1.9,0.8c1.1,1.1,2.5,1.6,3.9,1.6
					c1.4,0,2.8-0.5,3.9-1.6c0.5-0.5,1.2-0.8,1.9-0.8h6.1V40H24c-1.4,0-2.7,0.5-3.7,1.6C19.1,42.7,17.2,42.7,16.1,41.6z"/>
			</defs>
			<use xlink:href="#XMLID_733_"  style="overflow:visible;fill-rule:evenodd;clip-rule:evenodd;fill:#3A3A3A;"/>
			<clipPath id="XMLID_3_">
				<use xlink:href="#XMLID_733_"  style="overflow:visible;"/>
			</clipPath>
			<rect id="XMLID_734_" x="1.1" y="35" class="st1" width="34" height="15"/>
		</g>
	</g>
	<g id="XMLID_814_">
		<path id="XMLID_838_" class="st2" d="M46.5,27V13.3h3.4l3.8,6.4c0.2,0.3,0.3,0.6,0.5,1c0.2,0.4,0.3,0.7,0.5,1l0.2,0.4h0
			c-0.1-1-0.2-1.8-0.2-2.3v-6.4h3.4V27h-3.4l-3.8-6.4c-0.2-0.3-0.3-0.6-0.5-1c-0.2-0.4-0.3-0.7-0.5-1l-0.2-0.4h0
			c0.1,1,0.2,1.8,0.2,2.3V27H46.5z"/>
		<path id="XMLID_820_" class="st2" d="M59.4,27l4.7-13.7h3.5L72.3,27h-3.5L68,24.1h-4.3L62.9,27H59.4z M64.5,21.4h2.7l-0.8-2.7
			l-0.6-2.4h0c-0.2,1-0.4,1.8-0.6,2.4L64.5,21.4z"/>
		<path id="XMLID_818_" class="st2" d="M72.7,25.3l1.8-2.6c0.4,0.4,1,0.7,1.6,1c0.6,0.3,1.2,0.4,1.7,0.4c0.4,0,0.8-0.1,1-0.3
			c0.2-0.2,0.4-0.4,0.4-0.7c0-0.3-0.2-0.6-0.5-0.8c-0.3-0.2-0.7-0.5-1.1-0.6c-0.4-0.2-0.9-0.4-1.5-0.6c-0.5-0.3-1-0.5-1.5-0.8
			c-0.4-0.3-0.8-0.7-1.1-1.2c-0.3-0.5-0.5-1.1-0.5-1.8c0-1.3,0.5-2.3,1.4-3c0.9-0.8,2.1-1.2,3.6-1.2c1.7,0,3.1,0.5,4.3,1.6L81,17.3
			c-0.4-0.3-0.9-0.6-1.4-0.9c-0.6-0.2-1.1-0.3-1.6-0.3c-0.5,0-0.9,0.1-1.1,0.3c-0.2,0.2-0.4,0.4-0.4,0.7c0,0.3,0.2,0.6,0.5,0.8
			c0.3,0.2,0.7,0.4,1.1,0.6c0.4,0.2,0.9,0.4,1.5,0.6c0.5,0.2,1,0.5,1.5,0.8c0.4,0.3,0.8,0.7,1.1,1.2c0.3,0.5,0.5,1.1,0.5,1.8
			c0,1.2-0.4,2.2-1.3,3.1c-0.9,0.8-2.1,1.2-3.6,1.2c-0.9,0-1.8-0.2-2.7-0.5C74.1,26.4,73.4,25.9,72.7,25.3z"/>
		<path id="XMLID_815_" class="st2" d="M84.7,27V13.3h4.9c2.2,0,3.9,0.6,5.2,1.8c1.3,1.2,1.9,2.9,1.9,5c0,2.1-0.6,3.8-1.9,5.1
			c-1.3,1.2-3,1.8-5.2,1.8H84.7z M88.1,24.1h1.4c1.2,0,2.1-0.3,2.8-1c0.7-0.7,1-1.7,1-3c0-1.3-0.3-2.3-1-2.9c-0.7-0.7-1.6-1-2.7-1
			h-1.4V24.1z"/>
	</g>
</g>
</svg>
