<?xml version="1.0" encoding="utf-8"?>
<!-- Generator: Adobe Illustrator 21.1.0, SVG Export Plug-In . SVG Version: 6.00 Build 0)  -->
<svg version="1.1" id="Слой_1" xmlns="http://www.w3.org/2000/svg" xmlns:xlink="http://www.w3.org/1999/xlink" x="0px" y="0px"
	 viewBox="0 0 108.6 39.4" style="enable-background:new 0 0 108.6 39.4;" xml:space="preserve">
<style type="text/css">
	.st0{clip-path:url(#XMLID_2_);fill:#FFFFFF;}
	.st1{clip-path:url(#XMLID_3_);fill:#FFFFFF;}
	.st2{fill:#FFFFFF;}
</style>
<g id="XMLID_385_">
	<g id="XMLID_502_">
		<defs>
			<path id="XMLID_503_" d="M3.9,19.2l2.2,2.2h4.3v2.5l4.9,4.7l0,6.4l2.2,0v-6.4l4.8-4.6v-2.5h4.3l2.2-2.1c0.3,0.1,0.6,0.2,0.9,0.2
				c1.5,0,2.8-1.2,2.8-2.7c0-1.5-1.3-2.7-2.8-2.7c-1.5,0-2.8,1.2-2.8,2.7c0,0.4,0.1,0.7,0.2,1.1l-1.5,1.4h-3.3v-3.8l5.1-4.9
				c0.5,0.2,1,0.4,1.6,0.4c2,0,3.6-1.6,3.6-3.5c0-1.9-1.6-3.5-3.6-3.5c-2,0-3.6,1.6-3.6,3.5c0,0.6,0.2,1.1,0.4,1.6l-5.8,5.5v8.5
				l-2.5,2.4V6.8C19,6.3,20,5,20,3.5C20,1.6,18.4,0,16.4,0c-2,0-3.6,1.6-3.6,3.5c0,1.5,1.1,2.8,2.5,3.3v18.7l-2.7-2.6v-8.5L6.9,8.9
				c0.3-0.5,0.4-1,0.4-1.6c0-1.9-1.6-3.5-3.6-3.5C1.6,3.8,0,5.4,0,7.3c0,1.9,1.6,3.5,3.6,3.5c0.6,0,1.1-0.1,1.6-0.4l5.1,4.9v3.8H7
				l-1.6-1.5c0.1-0.3,0.2-0.6,0.2-1c0-1.5-1.3-2.7-2.8-2.7c-1.5,0-2.8,1.2-2.8,2.7c0,1.5,1.3,2.7,2.8,2.7
				C3.2,19.4,3.5,19.3,3.9,19.2z M29,6c0.8,0,1.4,0.6,1.4,1.3S29.8,8.7,29,8.7c-0.8,0-1.4-0.6-1.4-1.3S28.3,6,29,6 M3.6,8.7
				c-0.8,0-1.4-0.6-1.4-1.3S2.9,6,3.6,6C4.4,6,5,6.6,5,7.3S4.4,8.7,3.6,8.7"/>
		</defs>
		<use xlink:href="#XMLID_503_"  style="overflow:visible;fill-rule:evenodd;clip-rule:evenodd;fill:#FFFFFF;"/>
		<clipPath id="XMLID_2_">
			<use xlink:href="#XMLID_503_"  style="overflow:visible;"/>
		</clipPath>
		<rect id="XMLID_507_" x="-2.7" y="-2.7" class="st0" width="38.1" height="40.3"/>
	</g>
	<g id="XMLID_496_">
		<defs>
			<path id="XMLID_500_" d="M14.3,36.2c-0.9-0.9-2.1-1.3-3.3-1.3H5.4v2.2H11c0.6,0,1.3,0.3,1.7,0.7c0.9,0.9,2.2,1.4,3.4,1.4
				c1.3,0,2.5-0.5,3.5-1.4c0.5-0.5,1.1-0.7,1.7-0.7h5.4v-2.2h-5.4c-1.2,0-2.4,0.5-3.3,1.4C17,37.3,15.3,37.3,14.3,36.2z"/>
		</defs>
		<use xlink:href="#XMLID_500_"  style="overflow:visible;fill-rule:evenodd;clip-rule:evenodd;fill:#FFFFFF;"/>
		<clipPath id="XMLID_3_">
			<use xlink:href="#XMLID_500_"  style="overflow:visible;"/>
		</clipPath>
		<rect id="XMLID_501_" x="2.7" y="32.1" class="st1" width="26.7" height="9.8"/>
	</g>
	<path id="XMLID_438_" class="st2" d="M43.1,8.7V3.3h1.3v2.2h2V3.3h1.3v5.5h-1.3V6.6h-2v2.1H43.1z M49.1,8.7l1.9-5.5h1.4l1.9,5.5
		h-1.4l-0.3-1.1h-1.7l-0.3,1.1H49.1z M51.1,6.5h1.1l-0.3-1.1l-0.2-0.9h0c-0.1,0.4-0.2,0.7-0.2,0.9L51.1,6.5z M55.5,8.7V3.3h1.3v4.3
		h1.9V3.3h1.3v4.3h0.7v2.2h-1.2V8.7H55.5z M62.4,8.7V3.3h1.3v5.5H62.4z M65.4,6c0-0.8,0.3-1.4,0.8-2c0.5-0.5,1.2-0.8,2-0.8
		c0.8,0,1.5,0.3,2,0.8c0.5,0.5,0.8,1.2,0.8,2c0,0.8-0.3,1.5-0.8,2c-0.5,0.5-1.2,0.8-2,0.8c-0.8,0-1.5-0.3-2-0.8
		C65.7,7.4,65.4,6.8,65.4,6z M66.8,6c0,0.5,0.1,0.9,0.4,1.2c0.3,0.3,0.6,0.5,1,0.5c0.4,0,0.8-0.2,1-0.5c0.3-0.3,0.4-0.7,0.4-1.2
		c0-0.4-0.1-0.8-0.4-1.1c-0.3-0.3-0.6-0.4-1-0.4c-0.4,0-0.8,0.1-1,0.4C66.9,5.1,66.8,5.5,66.8,6z M72.8,8.7V3.3h1.3v2.2h2V3.3h1.3
		v5.5h-1.3V6.6h-2v2.1H72.8z M78.8,8.7l1.9-5.5h1.4l1.9,5.5h-1.4l-0.3-1.1h-1.7l-0.3,1.1H78.8z M80.8,6.5h1.1l-0.3-1.1l-0.2-0.9h0
		c-0.1,0.4-0.2,0.7-0.2,0.9L80.8,6.5z M84.8,7.6c0.2,0,0.4-0.1,0.6-0.3c0.1-0.1,0.3-0.4,0.4-0.8c0.1-0.4,0.1-0.9,0.1-1.5V3.3h3.7
		v5.5h-1.3V4.4h-1.1v0.7c0,1.3-0.2,2.3-0.6,2.8c-0.4,0.6-1,0.9-1.8,0.9V7.6z M91.5,8.7V3.3h1.3v1.7h0.9c0.5,0,1,0.2,1.3,0.5
		c0.3,0.4,0.5,0.8,0.5,1.4c0,0.5-0.2,1-0.5,1.3c-0.3,0.4-0.8,0.5-1.3,0.5H91.5z M92.9,7.6h0.7c0.2,0,0.4-0.1,0.5-0.2
		c0.1-0.1,0.2-0.3,0.2-0.5S94.2,6.4,94,6.3c-0.1-0.1-0.3-0.2-0.5-0.2h-0.7V7.6z M97.1,8.7V3.3h1.3v2.2h2V3.3h1.3v5.5h-1.3V6.6h-2
		v2.1H97.1z M103.1,8.7l1.9-5.5h1.4l1.9,5.5h-1.4l-0.3-1.1h-1.7l-0.3,1.1H103.1z M105.1,6.5h1.1l-0.3-1.1l-0.2-0.9h0
		c-0.1,0.4-0.2,0.7-0.2,0.9L105.1,6.5z"/>
	<path id="XMLID_421_" class="st2" d="M42.5,18.5l1.9-5.5h1.4l1.9,5.5h-1.4l-0.3-1.1h-1.7l-0.3,1.1H42.5z M44.5,16.3h1.1l-0.3-1.1
		L45,14.3h0c-0.1,0.4-0.2,0.7-0.2,0.9L44.5,16.3z M48.9,18.5v-5.5h1.3v2.1h0.5l1.1-2.1h1.4l-1.5,2.6v0l1.6,2.8H52l-1.2-2.2h-0.5v2.2
		H48.9z M54.3,18.5l1.9-5.5h1.4l1.9,5.5H58l-0.3-1.1H56l-0.3,1.1H54.3z M56.3,16.3h1.1l-0.3-1.1l-0.2-0.9h0
		c-0.1,0.4-0.2,0.7-0.2,0.9L56.3,16.3z M60.3,17.4h0.6c0.5-0.8,0.7-1.8,0.7-3v-1.3h3.7v4.3h0.6v2.2h-1.2v-1.1h-3.1v1.1h-1.2V17.4z
		 M62.2,17.4h1.7v-3.2h-1.1v0.3c0,0.5,0,1-0.1,1.5C62.6,16.5,62.4,17,62.2,17.4z M67.5,18.5v-5.5h3.4v1.1h-2.1v1h1.7v1.1h-1.7v1H71
		v1.1H67.5z M72.5,18.5l0.4-5.5h1.4l0.8,2.3l0.3,0.9h0c0.1-0.4,0.2-0.7,0.3-0.9l0.8-2.3H78l0.4,5.5h-1.3l-0.2-2.5c0-0.1,0-0.3,0-0.4
		c0-0.2,0-0.3,0-0.4l0-0.1h0c-0.1,0.4-0.2,0.7-0.3,0.9L76,17.6h-1.1l-0.6-1.6L74,15.1h0c0,0.3,0,0.6,0,0.9l-0.2,2.5H72.5z
		 M80.2,18.5v-5.5h1.3v5.5H80.2z M83,18.5l1-1.8l0.2-0.3v0c-0.6-0.3-0.9-0.9-0.9-1.6c0-0.4,0.1-0.7,0.3-1c0.2-0.3,0.4-0.5,0.7-0.6
		c0.2-0.1,0.6-0.1,1.1-0.1h1.9v5.5H86v-1.8h-0.5l-1,1.8H83z M84.7,14.9c0,0.5,0.2,0.7,0.7,0.7H86v-1.4h-0.4c-0.3,0-0.5,0.1-0.6,0.2
		C84.8,14.5,84.7,14.6,84.7,14.9L84.7,14.9z"/>
	<path id="XMLID_399_" class="st2" d="M43.1,28.3v-5.5h1.3v2.2h2v-2.2h1.3v5.5h-1.3v-2.1h-2v2.1H43.1z M49.1,28.3l1.9-5.5h1.4
		l1.9,5.5h-1.4l-0.3-1.1h-1.7l-0.3,1.1H49.1z M51.1,26.1h1.1l-0.3-1.1l-0.2-0.9h0c-0.1,0.4-0.2,0.7-0.2,0.9L51.1,26.1z M56.6,28.4
		c-0.4,0-0.9-0.1-1.2-0.4l0.6-1c0.2,0.2,0.4,0.3,0.6,0.3c0.2,0,0.4-0.1,0.4-0.3l-2.1-4.1h1.5l0.9,2l0.3,0.7h0
		c0.1-0.2,0.1-0.5,0.2-0.7l0.7-2h1.4L58.2,27c-0.1,0.2-0.2,0.4-0.2,0.5c-0.1,0.1-0.2,0.3-0.3,0.5c-0.1,0.2-0.3,0.3-0.5,0.4
		C57,28.4,56.8,28.4,56.6,28.4L56.6,28.4z M61.1,28.3v-5.5h1.3V25H63l1.1-2.1h1.4l-1.5,2.6v0l1.6,2.8h-1.5L63,26.1h-0.5v2.2H61.1z
		 M66.6,25.6c0-0.8,0.3-1.4,0.8-2c0.5-0.5,1.2-0.8,2-0.8c0.8,0,1.5,0.3,2,0.8c0.5,0.5,0.8,1.2,0.8,2c0,0.8-0.3,1.5-0.8,2
		c-0.5,0.5-1.2,0.8-2,0.8c-0.8,0-1.5-0.3-2-0.8C66.9,27,66.6,26.4,66.6,25.6z M68,25.6c0,0.5,0.1,0.9,0.4,1.2c0.3,0.3,0.6,0.5,1,0.5
		c0.4,0,0.8-0.2,1-0.5c0.3-0.3,0.4-0.7,0.4-1.2c0-0.4-0.1-0.8-0.4-1.1c-0.3-0.3-0.6-0.4-1-0.4c-0.4,0-0.8,0.2-1,0.4
		C68.2,24.8,68,25.1,68,25.6z M74,28.3v-5.5h2c0.6,0,1,0.1,1.3,0.4c0.3,0.2,0.5,0.6,0.5,1.1c0,0.2-0.1,0.5-0.2,0.7
		c-0.1,0.2-0.3,0.4-0.5,0.5v0c0.3,0.1,0.5,0.2,0.6,0.5c0.1,0.2,0.2,0.5,0.2,0.8c0,0.6-0.2,1-0.6,1.2c-0.4,0.3-0.9,0.4-1.5,0.4H74z
		 M75.3,25H76c0.2,0,0.3,0,0.4-0.1c0.1-0.1,0.1-0.2,0.1-0.4c0-0.1,0-0.2-0.1-0.3C76.3,24.1,76.2,24,76,24h-0.7V25z M75.3,27.2h0.8
		c0.2,0,0.3-0.1,0.4-0.2c0.1-0.1,0.2-0.2,0.2-0.4c0-0.2,0-0.3-0.1-0.4c-0.1-0.1-0.2-0.2-0.4-0.2h-0.8V27.2z M79.5,25.6
		c0-0.8,0.3-1.4,0.8-2c0.5-0.5,1.2-0.8,2-0.8c0.8,0,1.5,0.3,2,0.8c0.5,0.5,0.8,1.2,0.8,2c0,0.8-0.3,1.5-0.8,2
		c-0.5,0.5-1.2,0.8-2,0.8c-0.8,0-1.5-0.3-2-0.8C79.7,27,79.5,26.4,79.5,25.6z M80.8,25.6c0,0.5,0.1,0.9,0.4,1.2
		c0.3,0.3,0.6,0.5,1,0.5c0.4,0,0.8-0.2,1-0.5c0.3-0.3,0.4-0.7,0.4-1.2c0-0.4-0.1-0.8-0.4-1.1c-0.3-0.3-0.6-0.4-1-0.4
		c-0.4,0-0.8,0.2-1,0.4C81,24.8,80.8,25.1,80.8,25.6z M86.8,28.3v-5.5h3.3V24h-2v4.3H86.8z M91.2,25.6c0-0.8,0.3-1.4,0.8-2
		c0.5-0.5,1.2-0.8,2-0.8c0.8,0,1.5,0.3,2,0.8c0.5,0.5,0.8,1.2,0.8,2c0,0.8-0.3,1.5-0.8,2c-0.5,0.5-1.2,0.8-2,0.8
		c-0.8,0-1.5-0.3-2-0.8C91.5,27,91.2,26.4,91.2,25.6z M92.6,25.6c0,0.5,0.1,0.9,0.4,1.2c0.3,0.3,0.6,0.5,1,0.5c0.4,0,0.8-0.2,1-0.5
		c0.3-0.3,0.4-0.7,0.4-1.2c0-0.4-0.1-0.8-0.4-1.1c-0.3-0.3-0.6-0.4-1-0.4c-0.4,0-0.8,0.2-1,0.4C92.7,24.8,92.6,25.1,92.6,25.6z"/>
	<path id="XMLID_387_" class="st2" d="M43.1,38.1v-5.5h2.3c0.5,0,1,0.2,1.3,0.5s0.5,0.8,0.5,1.3c0,0.6-0.2,1-0.5,1.4
		c-0.3,0.4-0.8,0.5-1.3,0.5h-0.9v1.7H43.1z M44.4,35.3H45c0.2,0,0.4-0.1,0.5-0.2c0.1-0.1,0.2-0.3,0.2-0.5s-0.1-0.4-0.2-0.5
		c-0.1-0.1-0.3-0.2-0.5-0.2h-0.7V35.3z M48.3,35.4c0-0.8,0.3-1.4,0.8-2c0.5-0.5,1.2-0.8,2-0.8s1.5,0.3,2,0.8c0.5,0.5,0.8,1.2,0.8,2
		c0,0.8-0.3,1.5-0.8,2c-0.5,0.5-1.2,0.8-2,0.8s-1.5-0.3-2-0.8C48.6,36.9,48.3,36.2,48.3,35.4z M49.7,35.4c0,0.5,0.1,0.9,0.4,1.2
		c0.3,0.3,0.6,0.5,1,0.5c0.4,0,0.8-0.2,1-0.5c0.3-0.3,0.4-0.7,0.4-1.2c0-0.4-0.1-0.8-0.4-1.1c-0.3-0.3-0.6-0.4-1-0.4
		c-0.4,0-0.8,0.1-1,0.4C49.9,34.6,49.7,34.9,49.7,35.4z M57.1,38.2c-0.8,0-1.5-0.3-2-0.8l0.7-0.9c0.4,0.4,0.8,0.5,1.2,0.5
		c0.5,0,0.7-0.2,0.7-0.6c0-0.4-0.2-0.5-0.6-0.5h-0.7v-1.1h0.5c0.2,0,0.3-0.1,0.5-0.2c0.1-0.1,0.2-0.2,0.2-0.4c0-0.2-0.1-0.3-0.2-0.4
		c-0.1-0.1-0.3-0.2-0.5-0.2c-0.4,0-0.8,0.2-1.1,0.4l-0.5-1c0.5-0.4,1.1-0.6,1.9-0.6c0.3,0,0.6,0.1,0.8,0.2c0.3,0.1,0.5,0.3,0.7,0.5
		c0.2,0.2,0.3,0.5,0.3,0.9c0,0.5-0.2,0.9-0.7,1.2v0c0.3,0.1,0.5,0.2,0.6,0.5c0.2,0.2,0.2,0.5,0.2,0.8c0,0.5-0.2,0.9-0.6,1.2
		C58.1,38.1,57.7,38.2,57.1,38.2L57.1,38.2z M60.7,38.1v-5.5h2c0.6,0,1,0.1,1.3,0.4c0.3,0.2,0.5,0.6,0.5,1.1c0,0.2-0.1,0.5-0.2,0.7
		c-0.1,0.2-0.3,0.4-0.5,0.5v0c0.3,0.1,0.5,0.2,0.6,0.5c0.1,0.2,0.2,0.5,0.2,0.8c0,0.6-0.2,1-0.6,1.2c-0.4,0.3-0.9,0.4-1.5,0.4H60.7z
		 M62.1,34.8h0.7c0.2,0,0.3,0,0.4-0.1c0.1-0.1,0.1-0.2,0.1-0.4c0-0.1,0-0.2-0.1-0.3c-0.1-0.1-0.2-0.1-0.4-0.1h-0.7V34.8z M62.1,37
		h0.8c0.2,0,0.3-0.1,0.4-0.2c0.1-0.1,0.2-0.2,0.2-0.4c0-0.2,0-0.3-0.1-0.4c-0.1-0.1-0.2-0.2-0.4-0.2h-0.8V37z M66.5,38.1v-5.5h1.3
		v2.5l-0.1,0.9h0c0.2-0.4,0.3-0.7,0.5-0.9l1.5-2.5h1.3v5.5h-1.3v-2.5l0.1-0.9h0c-0.2,0.4-0.3,0.7-0.5,0.9l-1.5,2.5H66.5z M74.2,38.1
		v-4.3h-1.7v-1.1h4.6v1.1h-1.7v4.3H74.2z M78.7,38.1v-5.5h1.3v2.1h0.5l1.1-2.1h1.4l-1.5,2.6v0l1.6,2.8h-1.5l-1.2-2.2h-0.5v2.2H78.7z
		"/>
	<path id="XMLID_386_" class="st2" d="M85.8,38.2c-0.4,0-0.9-0.1-1.2-0.4l0.6-1c0.2,0.2,0.4,0.3,0.6,0.3c0.2,0,0.4-0.1,0.4-0.3
		L84,32.7h1.5l0.9,2l0.3,0.7h0c0.1-0.2,0.1-0.5,0.2-0.7l0.7-2H89l-1.6,4.1c-0.1,0.2-0.2,0.4-0.2,0.5c-0.1,0.1-0.2,0.3-0.3,0.5
		c-0.1,0.2-0.3,0.3-0.5,0.4C86.2,38.2,86,38.2,85.8,38.2L85.8,38.2z"/>
</g>
</svg>
