<?xml version="1.0" encoding="utf-8"?>
<!-- Generator: Adobe Illustrator 21.1.0, SVG Export Plug-In . SVG Version: 6.00 Build 0)  -->
<svg version="1.1" id="Слой_1" xmlns="http://www.w3.org/2000/svg" xmlns:xlink="http://www.w3.org/1999/xlink" x="0px" y="0px"
	 viewBox="0 0 39.6 62.6" style="enable-background:new 0 0 39.6 62.6;" xml:space="preserve">
<style type="text/css">
	.st0{fill:#0047AB;}
	.st1{fill:#FF8A4D;}
</style>
<g id="XMLID_76_">
	<path id="XMLID_365_" class="st0" d="M0.7,62.6V52.6h2.5v4h3.7v-4h2.5v10.1H6.8v-4H3.1v4H0.7z"/>
	<path id="XMLID_362_" class="st0" d="M10.3,62.6l3.4-10.1h2.6l3.4,10.1h-2.5l-0.6-2.1h-3.1l-0.6,2.1H10.3z M14,58.6h2l-0.6-2
		L15,54.9h0c-0.2,0.7-0.3,1.3-0.4,1.7L14,58.6z"/>
	<path id="XMLID_360_" class="st0" d="M20.8,62.6V52.6h2.5v4h3.7v-4h2.5v10.1h-2.5v-4h-3.7v4H20.8z"/>
	<path id="XMLID_357_" class="st0" d="M31.5,62.6V52.6h4.2c1,0,1.8,0.3,2.4,1C38.7,54.2,39,55,39,56c0,1-0.3,1.9-0.9,2.5
		c-0.6,0.7-1.4,1-2.4,1H34v3.1H31.5z M34,57.4h1.2c0.4,0,0.7-0.1,1-0.4c0.2-0.3,0.3-0.6,0.3-1c0-0.4-0.1-0.7-0.3-1
		c-0.2-0.2-0.5-0.4-0.9-0.4H34V57.4z"/>
	<g id="Group-2_1_" transform="translate(466.000000, 100.000000)">
		<g id="Logo_1_" transform="translate(225.000000, 0.000000)">
			<path id="Fill-3_1_" class="st1" d="M-686.6-89.3c-0.9,0-1.7-0.7-1.7-1.6c0-0.9,0.8-1.6,1.7-1.6c0.9,0,1.7,0.7,1.7,1.6
				C-684.9-90.1-685.7-89.3-686.6-89.3 M-655.8-92.6c0.9,0,1.7,0.7,1.7,1.6c0,0.9-0.8,1.6-1.7,1.6c-0.9,0-1.7-0.7-1.7-1.6
				C-657.5-91.9-656.7-92.6-655.8-92.6 M-686.3-76.4l2.7,2.7h5.2v3.1l5.9,5.7l0.1,7.9l2.7,0V-65l5.8-5.6v-3.1h5.2l2.7-2.6
				c0.4,0.1,0.7,0.2,1.1,0.2c1.9,0,3.4-1.5,3.4-3.3c0-1.8-1.5-3.3-3.4-3.3c-1.9,0-3.4,1.5-3.4,3.3c0,0.5,0.1,0.9,0.3,1.3l-1.8,1.8
				h-4.1v-4.7l6.2-6.1c0.6,0.3,1.3,0.5,2,0.5c2.4,0,4.4-1.9,4.4-4.3c0-2.4-2-4.3-4.4-4.3c-2.4,0-4.4,1.9-4.4,4.3
				c0,0.7,0.2,1.4,0.5,1.9l-7,6.8v10.5l-3.1,3v-22.9c1.8-0.6,3-2.2,3-4.1c0-2.4-2-4.3-4.4-4.3c-2.4,0-4.4,1.9-4.4,4.3
				c0,1.9,1.3,3.5,3,4.1v23.1l-3.2-3.1v-10.5l-7-6.8c0.3-0.6,0.5-1.2,0.5-1.9c0-2.4-2-4.3-4.4-4.3s-4.4,1.9-4.4,4.3
				c0,2.4,2,4.3,4.4,4.3c0.7,0,1.4-0.2,2-0.5l6.2,6.1v4.7h-4.1l-1.9-1.9c0.2-0.4,0.2-0.8,0.2-1.2c0-1.8-1.5-3.3-3.4-3.3
				c-1.9,0-3.4,1.5-3.4,3.3c0,1.8,1.5,3.3,3.4,3.3C-687.1-76.1-686.7-76.2-686.3-76.4z"/>
			<path id="Fill-5_1_" class="st1" d="M-673.4-55.3c-1.1-1.1-2.5-1.7-4-1.7h-6.9v2.7h6.9c0.8,0,1.5,0.3,2.1,0.9
				c1.2,1.2,2.7,1.7,4.2,1.7c1.5,0,3.1-0.6,4.3-1.8c0.6-0.6,1.3-0.9,2.1-0.9h6.6V-57h-6.6c-1.5,0-3,0.6-4.1,1.7
				C-670-54.1-672.1-54.1-673.4-55.3z"/>
		</g>
	</g>
</g>
</svg>
