<?xml version="1.0" encoding="utf-8"?>
<!-- Generator: Adobe Illustrator 21.1.0, SVG Export Plug-In . SVG Version: 6.00 Build 0)  -->
<svg version="1.1" id="Слой_1" xmlns="http://www.w3.org/2000/svg" xmlns:xlink="http://www.w3.org/1999/xlink" x="0px" y="0px"
	 viewBox="0 0 100.7 45" style="enable-background:new 0 0 100.7 45;" xml:space="preserve">
<style type="text/css">
	.st0{clip-path:url(#XMLID_2_);fill:#3A3A3A;}
	.st1{clip-path:url(#XMLID_3_);fill:#3A3A3A;}
	.st2{fill:#3A3A3A;}
</style>
<g id="XMLID_222_">
	<g id="XMLID_206_">
		<defs>
			<path id="XMLID_207_" d="M4.3,22l2.5,2.5h4.7v2.9l5.4,5.3L17,40l2.5,0v-7.4l5.3-5.2v-2.9h4.7l2.5-2.4c0.3,0.1,0.7,0.2,1,0.2
				c1.7,0,3.1-1.4,3.1-3.1c0-1.7-1.4-3.1-3.1-3.1c-1.7,0-3.1,1.4-3.1,3.1c0,0.4,0.1,0.8,0.3,1.2L28.4,22h-3.7v-4.4l5.7-5.6
				c0.5,0.3,1.2,0.4,1.8,0.4c2.2,0,4-1.8,4-4c0-2.2-1.8-4-4-4c-2.2,0-4,1.8-4,4c0,0.7,0.2,1.3,0.5,1.8l-6.4,6.4v9.7l-2.8,2.8V7.8
				c1.6-0.5,2.8-2,2.8-3.8c0-2.2-1.8-4-4-4c-2.2,0-4,1.8-4,4c0,1.8,1.2,3.3,2.8,3.8v21.5l-3-2.9v-9.7l-6.4-6.4
				c0.3-0.5,0.5-1.2,0.5-1.8c0-2.2-1.8-4-4-4c-2.2,0-4,1.8-4,4c0,2.2,1.8,4,4,4c0.7,0,1.3-0.2,1.8-0.4l5.7,5.6V22H7.8L6,20.3
				c0.1-0.3,0.2-0.7,0.2-1.1c0-1.7-1.4-3.1-3.1-3.1c-1.7,0-3.1,1.4-3.1,3.1c0,1.7,1.4,3.1,3.1,3.1C3.6,22.2,3.9,22.1,4.3,22z
				 M32.2,6.9c0.9,0,1.5,0.7,1.5,1.5s-0.7,1.5-1.5,1.5c-0.9,0-1.5-0.7-1.5-1.5S31.4,6.9,32.2,6.9 M4,9.9c-0.9,0-1.5-0.7-1.5-1.5
				S3.2,6.9,4,6.9c0.9,0,1.5,0.7,1.5,1.5S4.9,9.9,4,9.9"/>
		</defs>
		<use xlink:href="#XMLID_207_"  style="overflow:visible;fill-rule:evenodd;clip-rule:evenodd;fill:#3A3A3A;"/>
		<clipPath id="XMLID_2_">
			<use xlink:href="#XMLID_207_"  style="overflow:visible;"/>
		</clipPath>
		<rect id="XMLID_211_" x="-5" y="-5" class="st0" width="46.3" height="50"/>
	</g>
	<g id="XMLID_203_">
		<defs>
			<path id="XMLID_204_" d="M16.1,41.6c-1-1-2.3-1.5-3.7-1.5H6.1v2.6h6.3c0.7,0,1.4,0.3,1.9,0.8c1.1,1.1,2.5,1.6,3.9,1.6
				c1.4,0,2.8-0.5,3.9-1.6c0.5-0.5,1.2-0.8,1.9-0.8h6.1V40H24c-1.4,0-2.7,0.5-3.7,1.6C19.1,42.7,17.2,42.7,16.1,41.6z"/>
		</defs>
		<use xlink:href="#XMLID_204_"  style="overflow:visible;fill-rule:evenodd;clip-rule:evenodd;fill:#3A3A3A;"/>
		<clipPath id="XMLID_3_">
			<use xlink:href="#XMLID_204_"  style="overflow:visible;"/>
		</clipPath>
		<rect id="XMLID_205_" x="1.1" y="35" class="st1" width="34" height="15"/>
	</g>
	<path id="XMLID_196_" class="st2" d="M46.5,27V12.7H50v5.7h5.2v-5.7h3.5V27h-3.5v-5.6H50V27H46.5z M60.1,27L65,12.7h3.7L73.5,27
		h-3.6L69,24h-4.5l-0.9,3H60.1z M65.4,21.2h2.8l-0.8-2.8L66.8,16h0c-0.2,1-0.4,1.9-0.6,2.5L65.4,21.2z M74.9,27V12.7h3.5v5.7h5.2
		v-5.7h3.5V27h-3.5v-5.6h-5.2V27H74.9z M90.1,27V12.7h5.9c1.4,0,2.5,0.5,3.4,1.4s1.3,2.1,1.3,3.5c0,1.5-0.4,2.6-1.3,3.6
		c-0.9,0.9-2,1.4-3.4,1.4h-2.4V27H90.1z M93.6,19.6h1.7c0.6,0,1-0.2,1.3-0.5c0.3-0.4,0.5-0.8,0.5-1.4c0-0.6-0.2-1.1-0.5-1.4
		c-0.3-0.3-0.7-0.5-1.3-0.5h-1.8V19.6z"/>
</g>
</svg>
