<?xml version="1.0" encoding="UTF-8"?>
<svg width="103px" height="45px" viewBox="0 0 103 45" version="1.1" xmlns="http://www.w3.org/2000/svg" xmlns:xlink="http://www.w3.org/1999/xlink">
    <!-- Generator: Sketch 48.2 (47327) - http://www.bohemiancoding.com/sketch -->
    <title>Logo</title>
    <desc>Created with Sketch.</desc>
    <defs></defs>
    <g id="Symbols" stroke="none" stroke-width="1" fill="none" fill-rule="evenodd">
        <g id="Logo">
            <g>
                <path d="M4.97319633,9.94089177 C4.12001316,9.94089177 3.42662815,9.2526974 3.42662815,8.40590113 C3.42662815,7.55910485 4.12001316,6.87091049 4.97319633,6.87091049 C5.82637949,6.87091049 6.51976451,7.55910485 6.51976451,8.40590113 C6.51976451,9.2526974 5.82637949,9.94089177 4.97319633,9.94089177 M33.1699272,6.87091049 C34.0217208,6.87091049 34.7151059,7.55910485 34.7151059,8.40590113 C34.7151059,9.2526974 34.0217208,9.94089177 33.1699272,9.94089177 C32.3167441,9.94089177 31.6233591,9.2526974 31.6233591,8.40590113 C31.6233591,7.55910485 32.3167441,6.87091049 33.1699272,6.87091049 M5.23117709,22.0002718 L7.72541778,24.4744615 L12.4698139,24.4744615 L12.4698139,27.3471064 L17.8543167,32.6913011 L17.9057301,40 L20.3888544,39.9586256 L20.3888544,32.5920025 L25.6733097,27.3471064 L25.6733097,24.4744615 L30.4177058,24.4744615 L32.8772077,22.0333713 C33.1981936,22.1450822 33.5372436,22.218177 33.8957472,22.218177 C35.6104509,22.218177 37,20.83903 37,19.1371626 C37,17.4366743 35.6104509,16.0575272 33.8957472,16.0575272 C32.1824332,16.0575272 30.792884,17.4366743 30.792884,19.1371626 C30.792884,19.572973 30.8859838,19.985338 31.0499506,20.3618451 L29.3894394,22.0099258 L25.6733097,22.0099258 L25.6733097,17.5979161 L31.3551761,11.9585839 C31.9026584,12.2344133 32.51406,12.4054275 33.1699272,12.4054275 C35.3918163,12.4054275 37.1996197,10.6125364 37.1996197,8.40590113 C37.1996197,6.20064503 35.3918163,4.40637475 33.1699272,4.40637475 C30.9466486,4.40637475 29.1388452,6.20064503 29.1388452,8.40590113 C29.1388452,9.06099597 29.3139284,9.6719581 29.5960069,10.2181003 L23.1901854,16.5773473 L23.1901854,26.3265376 L20.3888544,29.1055189 L20.3888544,7.78528497 C22.0007313,7.26258824 23.1762899,5.77310945 23.1762899,3.99952638 C23.1762899,1.79427028 21.369876,0 19.1465974,0 C16.9247084,0 15.116905,1.79427028 15.116905,3.99952638 C15.116905,5.77310945 16.2924635,7.26258824 17.9057301,7.78528497 L17.9057301,29.2558459 L14.9529382,26.3265376 L14.9529382,16.5773473 L8.54572714,10.2181003 C8.82780561,9.6719581 9.0028888,9.06099597 9.0028888,8.40590113 C9.0028888,6.20064503 7.19647493,4.40637475 4.97319633,4.40637475 C2.74991772,4.40637475 0.943503858,6.20064503 0.943503858,8.40590113 C0.943503858,10.6125364 2.74991772,12.4054275 4.97319633,12.4054275 C5.62906352,12.4054275 6.23907558,12.2344133 6.78655794,11.9585839 L12.4698139,17.5979161 L12.4698139,22.0099258 L8.75368413,22.0099258 L6.98756719,20.2570299 C7.12513256,19.9094849 7.20711595,19.5343569 7.20711595,19.1371626 C7.20711595,17.4366743 5.81756683,16.0575272 4.10425275,16.0575272 C2.38954913,16.0575272 1,17.4366743 1,19.1371626 C1,20.83903 2.38954913,22.218177 4.10425275,22.218177 C4.50305335,22.218177 4.88101071,22.1368073 5.23117709,22.0002718 Z" id="Fill-3" fill="#FF8A4D"></path>
                <path d="M17.0147345,41.5844267 C16.0387222,40.6003993 14.6878647,40.0356532 13.3073024,40.0356532 L7,40.0356532 L7,42.5855676 L13.3073024,42.5855676 C14.0216302,42.5855676 14.7203984,42.8764974 15.2267932,43.3870508 C16.2919196,44.4609241 17.689456,45 19.0926504,45 C20.5085755,45 21.928744,44.4509412 23.0221607,43.3513976 C23.535628,42.8337136 24.2160075,42.5484883 24.9416514,42.5484883 L31,42.5484883 L31,40 L24.9416514,40 C23.541286,40 22.2257912,40.5490588 21.1974421,41.5844267 C20.044616,42.7467199 18.1675606,42.7467199 17.0147345,41.5844267 Z" id="Fill-5" fill="#FF8A4D"></path>
                <path d="M47.41,27 L47.41,12.7 L50.91,12.7 L50.91,18.42 L56.11,18.42 L56.11,12.7 L59.61,12.7 L59.61,27 L56.11,27 L56.11,21.4 L50.91,21.4 L50.91,27 L47.41,27 Z M61.05,27 L65.91,12.7 L69.59,12.7 L74.45,27 L70.85,27 L69.97,24 L65.51,24 L64.65,27 L61.05,27 Z M66.33,21.2 L69.15,21.2 L68.35,18.42 L67.77,15.96 L67.73,15.96 C67.5166656,17.0000052 67.3233342,17.819997 67.15,18.42 L66.33,21.2 Z M75.89,27 L75.89,12.7 L79.39,12.7 L79.39,18.42 L84.59,18.42 L84.59,12.7 L88.09,12.7 L88.09,27 L84.59,27 L84.59,21.4 L79.39,21.4 L79.39,27 L75.89,27 Z M91.09,27 L91.09,12.7 L97.03,12.7 C98.4166736,12.7 99.5399957,13.1599954 100.4,14.08 C101.260004,15.0000046 101.69,16.1799928 101.69,17.62 C101.69,19.0733406 101.260004,20.2633287 100.4,21.19 C99.5399957,22.1166713 98.4166736,22.58 97.03,22.58 L94.59,22.58 L94.59,27 L91.09,27 Z M94.59,19.58 L96.31,19.58 C96.8966696,19.58 97.3466651,19.4000018 97.66,19.04 C97.9733349,18.6799982 98.13,18.2066696 98.13,17.62 C98.13,17.0333304 97.9766682,16.5666684 97.67,16.22 C97.3633318,15.8733316 96.9300028,15.7 96.37,15.7 L94.59,15.7 L94.59,19.58 Z" id="НАНР" fill="#FFFFFF"></path>
            </g>
        </g>
    </g>
</svg>