<?xml version="1.0" encoding="utf-8"?>
<!-- Generator: Adobe Illustrator 21.1.0, SVG Export Plug-In . SVG Version: 6.00 Build 0)  -->
<svg version="1.1" id="Слой_1" xmlns="http://www.w3.org/2000/svg" xmlns:xlink="http://www.w3.org/1999/xlink" x="0px" y="0px"
	 viewBox="0 0 108.3 39.4" style="enable-background:new 0 0 108.3 39.4;" xml:space="preserve">
<style type="text/css">
	.st0{clip-path:url(#XMLID_2_);fill:#FF8A4D;}
	.st1{clip-path:url(#XMLID_3_);fill:#FF8A4D;}
	.st2{fill:#0047AB;}
</style>
<g id="XMLID_625_">
	<g id="XMLID_629_">
		<defs>
			<path id="XMLID_630_" d="M3.9,19.2l2.3,2.2h4.3v2.5l4.9,4.7l0,6.4l2.2,0v-6.4l4.8-4.6v-2.5h4.3l2.2-2.1c0.3,0.1,0.6,0.2,0.9,0.2
				c1.6,0,2.8-1.2,2.8-2.7c0-1.5-1.3-2.7-2.8-2.7c-1.5,0-2.8,1.2-2.8,2.7c0,0.4,0.1,0.7,0.2,1.1l-1.5,1.4h-3.4v-3.9l5.1-4.9
				c0.5,0.2,1,0.4,1.6,0.4c2,0,3.6-1.6,3.6-3.5c0-1.9-1.6-3.5-3.6-3.5c-2,0-3.6,1.6-3.6,3.5c0,0.6,0.2,1.1,0.4,1.6l-5.8,5.6V23
				l-2.5,2.4V6.8C19,6.4,20.1,5,20.1,3.5c0-1.9-1.6-3.5-3.6-3.5c-2,0-3.6,1.6-3.6,3.5c0,1.6,1.1,2.9,2.5,3.3v18.8L12.7,23v-8.5
				L6.9,8.9c0.3-0.5,0.4-1,0.4-1.6c0-1.9-1.6-3.5-3.6-3.5S0,5.4,0,7.4c0,1.9,1.6,3.5,3.6,3.5c0.6,0,1.1-0.1,1.6-0.4l5.1,4.9v3.9H7.1
				l-1.6-1.5c0.1-0.3,0.2-0.6,0.2-1c0-1.5-1.3-2.7-2.8-2.7c-1.6,0-2.8,1.2-2.8,2.7c0,1.5,1.3,2.7,2.8,2.7
				C3.2,19.4,3.6,19.4,3.9,19.2z M29.2,6c0.8,0,1.4,0.6,1.4,1.3c0,0.7-0.6,1.3-1.4,1.3c-0.8,0-1.4-0.6-1.4-1.3
				C27.8,6.6,28.4,6,29.2,6 M3.6,8.7c-0.8,0-1.4-0.6-1.4-1.3C2.2,6.6,2.9,6,3.6,6S5,6.6,5,7.4C5,8.1,4.4,8.7,3.6,8.7"/>
		</defs>
		<use xlink:href="#XMLID_630_"  style="overflow:visible;fill-rule:evenodd;clip-rule:evenodd;fill:#FF8A4D;"/>
		<clipPath id="XMLID_2_">
			<use xlink:href="#XMLID_630_"  style="overflow:visible;"/>
		</clipPath>
		<rect id="XMLID_634_" x="-2.7" y="-2.7" class="st0" width="38.3" height="40.4"/>
	</g>
	<g id="XMLID_626_">
		<defs>
			<path id="XMLID_627_" d="M14.4,36.4c-0.9-0.9-2.1-1.4-3.3-1.4H5.5v2.2h5.6c0.6,0,1.3,0.3,1.7,0.7c0.9,0.9,2.2,1.4,3.4,1.4
				c1.3,0,2.5-0.5,3.5-1.4c0.5-0.5,1.1-0.7,1.7-0.7h5.4V35h-5.4c-1.2,0-2.4,0.5-3.3,1.4C17.1,37.4,15.4,37.4,14.4,36.4z"/>
		</defs>
		<use xlink:href="#XMLID_627_"  style="overflow:visible;fill-rule:evenodd;clip-rule:evenodd;fill:#FF8A4D;"/>
		<clipPath id="XMLID_3_">
			<use xlink:href="#XMLID_627_"  style="overflow:visible;"/>
		</clipPath>
		<rect id="XMLID_628_" x="2.7" y="32.2" class="st1" width="26.8" height="9.8"/>
	</g>
</g>
<g id="XMLID_74_">
	<path id="XMLID_573_" class="st2" d="M43.2,8.7V3.4h1.3L46,5.8c0.1,0.1,0.1,0.2,0.2,0.4c0.1,0.2,0.1,0.3,0.2,0.4l0.1,0.1h0
		c0-0.4-0.1-0.7-0.1-0.9V3.4h1.3v5.3h-1.3l-1.5-2.5c-0.1-0.1-0.1-0.2-0.2-0.4c-0.1-0.2-0.1-0.3-0.2-0.4l-0.1-0.1h0
		c0,0.4,0.1,0.7,0.1,0.9v2.5H43.2z"/>
	<path id="XMLID_570_" class="st2" d="M49.3,8.7l1.8-5.3h1.4l1.8,5.3H53l-0.3-1.1H51l-0.3,1.1H49.3z M51.3,6.5h1l-0.3-1l-0.2-0.9h0
		c-0.1,0.4-0.2,0.7-0.2,0.9L51.3,6.5z"/>
	<path id="XMLID_568_" class="st2" d="M56.7,8.7V4.5H55V3.4h4.5v1.1H58v4.2H56.7z"/>
	<path id="XMLID_566_" class="st2" d="M61.3,8.7V3.4h1.3v2.1h1.9V3.4h1.3v5.3h-1.3V6.6h-1.9v2.1H61.3z"/>
	<path id="XMLID_564_" class="st2" d="M68.1,8.7V3.4h1.3v5.3H68.1z"/>
	<path id="XMLID_561_" class="st2" d="M71.3,6c0-0.8,0.3-1.4,0.8-1.9c0.5-0.5,1.2-0.8,2-0.8s1.5,0.3,2,0.8c0.5,0.5,0.8,1.2,0.8,1.9
		c0,0.8-0.3,1.5-0.8,2c-0.5,0.5-1.2,0.8-2,0.8S72.6,8.5,72,8C71.5,7.4,71.3,6.8,71.3,6z M72.6,6c0,0.5,0.1,0.8,0.4,1.1
		c0.3,0.3,0.6,0.5,1,0.5c0.4,0,0.8-0.2,1-0.5c0.3-0.3,0.4-0.7,0.4-1.1c0-0.4-0.1-0.8-0.4-1.1c-0.3-0.3-0.6-0.4-1-0.4
		c-0.4,0-0.8,0.1-1,0.4C72.7,5.2,72.6,5.6,72.6,6z"/>
	<path id="XMLID_559_" class="st2" d="M78.7,8.7V3.4h1.3l1.5,2.5c0.1,0.1,0.1,0.2,0.2,0.4c0.1,0.2,0.1,0.3,0.2,0.4L82,6.8h0
		c0-0.4-0.1-0.7-0.1-0.9V3.4h1.3v5.3h-1.3l-1.5-2.5c-0.1-0.1-0.1-0.2-0.2-0.4c-0.1-0.2-0.1-0.3-0.2-0.4L80,5.3h0C80,5.7,80,6,80,6.2
		v2.5H78.7z"/>
	<path id="XMLID_556_" class="st2" d="M84.9,8.7l1.8-5.3H88l1.8,5.3h-1.3l-0.3-1.1h-1.7l-0.3,1.1H84.9z M86.8,6.5h1l-0.3-1l-0.2-0.9
		h0c-0.1,0.4-0.2,0.7-0.2,0.9L86.8,6.5z"/>
	<path id="XMLID_554_" class="st2" d="M91.5,8.7V3.4h1.3v4.2h2.2v1.1H91.5z"/>
	<path id="XMLID_551_" class="st2" d="M42.6,18.5l1.8-5.3h1.4l1.8,5.3h-1.3l-0.3-1.1h-1.7L44,18.5H42.6z M44.6,16.3h1l-0.3-1
		l-0.2-0.9h0c-0.1,0.4-0.2,0.7-0.2,0.9L44.6,16.3z"/>
	<path id="XMLID_549_" class="st2" d="M48.8,15.8c0-0.8,0.3-1.4,0.8-2c0.5-0.5,1.2-0.8,2-0.8c0.4,0,0.7,0.1,1.1,0.2
		c0.4,0.1,0.7,0.3,0.9,0.6l-0.6,1c-0.2-0.2-0.4-0.3-0.6-0.4c-0.2-0.1-0.5-0.2-0.7-0.2c-0.5,0-0.9,0.1-1.1,0.4
		c-0.3,0.3-0.4,0.7-0.4,1.1c0,0.4,0.1,0.8,0.4,1.1c0.3,0.3,0.6,0.5,1.1,0.5c0.5,0,1-0.2,1.4-0.7l0.7,1c-0.6,0.6-1.3,0.9-2.1,0.9
		c-0.8,0-1.5-0.3-2-0.8C49.1,17.3,48.8,16.6,48.8,15.8z"/>
	<path id="XMLID_546_" class="st2" d="M54.9,18.5l1.8-5.3h1.4l1.8,5.3h-1.3l-0.3-1.1h-1.7l-0.3,1.1H54.9z M56.9,16.3h1l-0.3-1
		l-0.2-0.9h0c-0.1,0.4-0.2,0.7-0.2,0.9L56.9,16.3z"/>
	<path id="XMLID_543_" class="st2" d="M61.5,18.5v-5.3h1.9c0.8,0,1.5,0.2,2,0.7c0.5,0.5,0.7,1.1,0.7,1.9c0,0.8-0.2,1.5-0.7,2
		c-0.5,0.5-1.2,0.7-2,0.7H61.5z M62.8,17.4h0.5c0.5,0,0.8-0.1,1.1-0.4c0.3-0.3,0.4-0.7,0.4-1.2c0-0.5-0.1-0.9-0.4-1.1
		c-0.3-0.3-0.6-0.4-1.1-0.4h-0.5V17.4z"/>
	<path id="XMLID_541_" class="st2" d="M68.1,18.5v-5.3h3.3v1.1h-2v1H71v1.1h-1.6v1h2.1v1.1H68.1z"/>
	<path id="XMLID_348_" class="st2" d="M73.3,18.5l0.4-5.3h1.4l0.8,2.2l0.3,0.9h0c0.1-0.4,0.2-0.6,0.3-0.9l0.8-2.2h1.4l0.4,5.3h-1.3
		l-0.2-2.4c0-0.1,0-0.3,0-0.4c0-0.1,0-0.3,0-0.4l0-0.1h0c-0.1,0.4-0.2,0.7-0.3,0.9l-0.6,1.5h-1.1L75,16.1l-0.3-0.9h0
		c0,0.3,0,0.6,0,0.9l-0.2,2.4H73.3z"/>
	<path id="XMLID_138_" class="st2" d="M82.1,18.5v-2.2l-1.8-3.1h1.5l0.6,1.3l0.3,0.8h0c0.1-0.3,0.2-0.5,0.3-0.8l0.6-1.3h1.5
		l-1.8,3.1v2.2H82.1z"/>
	<path id="XMLID_135_" class="st2" d="M89.1,15.8c0-0.8,0.3-1.4,0.8-1.9c0.5-0.5,1.2-0.8,2-0.8s1.5,0.3,2,0.8
		c0.5,0.5,0.8,1.2,0.8,1.9c0,0.8-0.3,1.5-0.8,2c-0.5,0.5-1.2,0.8-2,0.8s-1.5-0.3-2-0.8C89.3,17.2,89.1,16.6,89.1,15.8z M90.4,15.8
		c0,0.5,0.1,0.8,0.4,1.1c0.3,0.3,0.6,0.5,1,0.5c0.4,0,0.8-0.2,1-0.5c0.3-0.3,0.4-0.7,0.4-1.1c0-0.4-0.1-0.8-0.4-1.1
		c-0.3-0.3-0.6-0.4-1-0.4c-0.4,0-0.8,0.1-1,0.4C90.6,15,90.4,15.4,90.4,15.8z"/>
	<path id="XMLID_133_" class="st2" d="M96.6,18.5v-5.3h3.3v1.1h-2v1.1h1.6v1.1h-1.6v2H96.6z"/>
	<path id="XMLID_131_" class="st2" d="M42.8,27.6l0.7-1c0.2,0.1,0.4,0.3,0.6,0.4c0.2,0.1,0.5,0.2,0.7,0.2c0.2,0,0.3,0,0.4-0.1
		c0.1-0.1,0.1-0.2,0.1-0.3c0-0.1-0.1-0.2-0.2-0.3c-0.1-0.1-0.3-0.2-0.4-0.2c-0.2-0.1-0.4-0.1-0.6-0.2c-0.2-0.1-0.4-0.2-0.6-0.3
		c-0.2-0.1-0.3-0.3-0.4-0.5C43.1,25,43,24.8,43,24.5c0-0.5,0.2-0.9,0.5-1.2c0.4-0.3,0.8-0.4,1.4-0.4c0.7,0,1.2,0.2,1.7,0.6L46,24.5
		c-0.2-0.1-0.3-0.2-0.5-0.3c-0.2-0.1-0.4-0.1-0.6-0.1c-0.2,0-0.3,0-0.4,0.1c-0.1,0.1-0.1,0.2-0.1,0.3c0,0.1,0.1,0.2,0.2,0.3
		c0.1,0.1,0.3,0.2,0.4,0.2c0.2,0.1,0.4,0.1,0.6,0.2c0.2,0.1,0.4,0.2,0.6,0.3c0.2,0.1,0.3,0.3,0.4,0.5c0.1,0.2,0.2,0.4,0.2,0.7
		c0,0.5-0.2,0.9-0.5,1.2c-0.3,0.3-0.8,0.5-1.4,0.5c-0.4,0-0.7-0.1-1-0.2C43.4,28,43.1,27.9,42.8,27.6z"/>
	<path id="XMLID_129_" class="st2" d="M48.3,25.6c0-0.8,0.3-1.4,0.8-2c0.5-0.5,1.2-0.8,2-0.8c0.4,0,0.7,0.1,1.1,0.2
		c0.4,0.1,0.7,0.3,0.9,0.6l-0.6,1c-0.2-0.2-0.4-0.3-0.6-0.4c-0.2-0.1-0.5-0.2-0.7-0.2c-0.5,0-0.9,0.1-1.1,0.4
		c-0.3,0.3-0.4,0.7-0.4,1.1c0,0.4,0.1,0.8,0.4,1.1c0.3,0.3,0.6,0.5,1.1,0.5c0.5,0,1-0.2,1.4-0.7l0.7,1c-0.6,0.6-1.3,0.9-2.1,0.9
		c-0.8,0-1.5-0.3-2-0.8C48.5,27.1,48.3,26.4,48.3,25.6z"/>
	<path id="XMLID_127_" class="st2" d="M55,28.3V23h1.3v5.3H55z"/>
	<path id="XMLID_125_" class="st2" d="M58.5,28.3V23h3.3v1.1h-2v1h1.6v1.1h-1.6v1h2.1v1.1H58.5z"/>
	<path id="XMLID_123_" class="st2" d="M63.8,28.3V23h1.3l1.5,2.5c0.1,0.1,0.1,0.2,0.2,0.4c0.1,0.2,0.1,0.3,0.2,0.4l0.1,0.1h0
		c0-0.4-0.1-0.7-0.1-0.9V23h1.3v5.3H67l-1.5-2.5c-0.1-0.1-0.1-0.2-0.2-0.4c-0.1-0.2-0.1-0.3-0.2-0.4l-0.1-0.1h0
		c0,0.4,0.1,0.7,0.1,0.9v2.5H63.8z"/>
	<path id="XMLID_121_" class="st2" d="M71.7,28.3v-4.2h-1.6V23h4.5v1.1H73v4.2H71.7z"/>
	<path id="XMLID_119_" class="st2" d="M76.3,28.3V23h1.3v5.3H76.3z"/>
	<path id="XMLID_117_" class="st2" d="M79.8,28.3V23h3.3v1.1h-2v1.1h1.6v1.1h-1.6v2H79.8z"/>
	<path id="XMLID_115_" class="st2" d="M84.9,28.3V23h1.3v5.3H84.9z"/>
	<path id="XMLID_113_" class="st2" d="M88.1,25.6c0-0.8,0.3-1.4,0.8-2c0.5-0.5,1.2-0.8,2-0.8c0.4,0,0.7,0.1,1.1,0.2
		c0.4,0.1,0.7,0.3,0.9,0.6l-0.6,1c-0.2-0.2-0.4-0.3-0.6-0.4c-0.2-0.1-0.5-0.2-0.7-0.2c-0.5,0-0.9,0.1-1.1,0.4
		c-0.3,0.3-0.4,0.7-0.4,1.1c0,0.4,0.1,0.8,0.4,1.1c0.3,0.3,0.6,0.5,1.1,0.5c0.5,0,1-0.2,1.4-0.7l0.7,1c-0.6,0.6-1.3,0.9-2.1,0.9
		c-0.8,0-1.5-0.3-2-0.8C88.4,27.1,88.1,26.4,88.1,25.6z"/>
	<path id="XMLID_110_" class="st2" d="M43.2,38.1v-5.3h1.9c0.8,0,1.5,0.2,2,0.7c0.5,0.5,0.7,1.1,0.7,1.9c0,0.8-0.2,1.5-0.7,2
		c-0.5,0.5-1.2,0.7-2,0.7H43.2z M44.5,37H45c0.5,0,0.8-0.1,1.1-0.4c0.3-0.3,0.4-0.7,0.4-1.2c0-0.5-0.1-0.9-0.4-1.1
		c-0.3-0.3-0.6-0.4-1.1-0.4h-0.5V37z"/>
	<path id="XMLID_108_" class="st2" d="M49.8,38.1v-5.3h3.3v1.1h-2v1h1.6V36h-1.6v1h2.1v1.1H49.8z"/>
	<path id="XMLID_106_" class="st2" d="M56.4,38.1l-1.9-5.3h1.4l0.9,3c0,0.1,0.1,0.2,0.1,0.4c0,0.1,0.1,0.3,0.1,0.3l0,0.1h0
		c0.1-0.3,0.1-0.6,0.2-0.9l1-3h1.4l-1.9,5.3H56.4z"/>
	<path id="XMLID_104_" class="st2" d="M61.2,38.1v-5.3h3.3v1.1h-2v1h1.6V36h-1.6v1h2.1v1.1H61.2z"/>
	<path id="XMLID_102_" class="st2" d="M66.6,38.1v-5.3h1.3V37h2.2v1.1H66.6z"/>
	<path id="XMLID_99_" class="st2" d="M71.4,35.4c0-0.8,0.3-1.4,0.8-1.9c0.5-0.5,1.2-0.8,2-0.8s1.5,0.3,2,0.8
		c0.5,0.5,0.8,1.2,0.8,1.9c0,0.8-0.3,1.5-0.8,2s-1.2,0.8-2,0.8s-1.5-0.3-2-0.8C71.6,36.8,71.4,36.2,71.4,35.4z M72.7,35.4
		c0,0.5,0.1,0.8,0.4,1.1c0.3,0.3,0.6,0.5,1,0.5c0.4,0,0.8-0.2,1-0.5c0.3-0.3,0.4-0.7,0.4-1.1c0-0.4-0.1-0.8-0.4-1.1
		c-0.3-0.3-0.6-0.4-1-0.4c-0.4,0-0.8,0.1-1,0.4C72.8,34.6,72.7,35,72.7,35.4z"/>
	<path id="XMLID_96_" class="st2" d="M78.8,38.1v-5.3H81c0.5,0,0.9,0.2,1.3,0.5c0.3,0.3,0.5,0.8,0.5,1.3c0,0.5-0.2,1-0.5,1.3
		c-0.3,0.3-0.7,0.5-1.3,0.5h-0.9v1.6H78.8z M80.1,35.3h0.6c0.2,0,0.4-0.1,0.5-0.2c0.1-0.1,0.2-0.3,0.2-0.5c0-0.2-0.1-0.4-0.2-0.5
		c-0.1-0.1-0.3-0.2-0.5-0.2h-0.7V35.3z"/>
	<path id="XMLID_94_" class="st2" d="M84.4,38.1l0.4-5.3h1.4L87,35l0.3,0.9h0c0.1-0.4,0.2-0.6,0.3-0.9l0.8-2.2h1.4l0.4,5.3h-1.3
		l-0.2-2.4c0-0.1,0-0.3,0-0.4c0-0.1,0-0.3,0-0.4l0-0.1h0c-0.1,0.4-0.2,0.7-0.3,0.9l-0.6,1.5h-1.1l-0.6-1.5l-0.3-0.9h0
		c0,0.3,0,0.6,0,0.9l-0.2,2.4H84.4z"/>
	<path id="XMLID_92_" class="st2" d="M92.2,38.1v-5.3h3.3v1.1h-2v1h1.6V36h-1.6v1h2.1v1.1H92.2z"/>
	<path id="XMLID_90_" class="st2" d="M97.6,38.1v-5.3h1.3l1.5,2.5c0.1,0.1,0.1,0.2,0.2,0.4c0.1,0.2,0.1,0.3,0.2,0.4l0.1,0.1h0
		c0-0.4-0.1-0.7-0.1-0.9v-2.5h1.3v5.3h-1.3l-1.5-2.5c-0.1-0.1-0.1-0.2-0.2-0.4c-0.1-0.2-0.1-0.3-0.2-0.4l-0.1-0.1h0
		c0,0.4,0.1,0.7,0.1,0.9v2.5H97.6z"/>
	<path id="XMLID_75_" class="st2" d="M105.4,38.1v-4.2h-1.6v-1.1h4.5v1.1h-1.6v4.2H105.4z"/>
</g>
</svg>
