<svg xmlns="http://www.w3.org/2000/svg" viewBox="-79 -2632.5 59 72"><defs><style>.a{fill:#ff8a4d;}</style></defs><g transform="translate(-79 -2632.5)"><path class="a" d="M27.6,64h0l-.084-11.693-8.762-8.551v-4.6h-7.72L6.978,35.2a5.127,5.127,0,0,1-1.834.348,4.93,4.93,0,1,1,0-9.857,5,5,0,0,1,5.049,4.927,4.771,4.771,0,0,1-.357,1.791l2.875,2.805h6.047v-7.06L9.509,19.134a6.616,6.616,0,0,1-2.951.715A6.487,6.487,0,0,1,0,13.45a6.487,6.487,0,0,1,6.557-6.4,6.487,6.487,0,0,1,6.557,6.4,6.2,6.2,0,0,1-.743,2.9L22.8,26.524v15.6L27.6,46.809V12.457A6.4,6.4,0,0,1,23.064,6.4a6.56,6.56,0,0,1,13.116,0,6.4,6.4,0,0,1-4.536,6.058V46.569L36.2,42.123v-15.6L46.626,16.349a6.2,6.2,0,0,1-.743-2.9A6.561,6.561,0,0,1,59,13.45a6.487,6.487,0,0,1-6.558,6.4,6.618,6.618,0,0,1-2.953-.715l-9.246,9.023v7.06h6.047l2.7-2.637a4.823,4.823,0,0,1-.418-1.959,5.052,5.052,0,1,1,5.05,4.929,5.056,5.056,0,0,1-1.658-.3l-4,3.906h-7.72v4.6l-8.6,8.392V63.934L27.6,64ZM52.442,10.994a2.457,2.457,0,1,0,2.515,2.456A2.49,2.49,0,0,0,52.442,10.994Zm-45.885,0A2.457,2.457,0,1,0,9.075,13.45,2.49,2.49,0,0,0,6.557,10.994Z"/><path class="a" d="M16.274,2.535A8.611,8.611,0,0,0,10.249.057H0v4.08H10.249a4.454,4.454,0,0,1,3.119,1.282A8.886,8.886,0,0,0,19.651,8a9.052,9.052,0,0,0,6.385-2.638,4.4,4.4,0,0,1,3.119-1.285H39V0H29.155a8.55,8.55,0,0,0-6.084,2.535A4.838,4.838,0,0,1,16.274,2.535Z" transform="translate(10 64)"/></g></svg>