<?xml version="1.0" encoding="utf-8"?>
<!-- Generator: Adobe Illustrator 21.1.0, SVG Export Plug-In . SVG Version: 6.00 Build 0)  -->
<svg version="1.1" id="Слой_1" xmlns="http://www.w3.org/2000/svg" xmlns:xlink="http://www.w3.org/1999/xlink" x="0px" y="0px"
	 viewBox="0 0 108.6 39.4" style="enable-background:new 0 0 108.6 39.4;" xml:space="preserve">
<style type="text/css">
	.st0{clip-path:url(#XMLID_2_);fill:#3A3A3A;}
	.st1{clip-path:url(#XMLID_3_);fill:#3A3A3A;}
	.st2{fill:#3A3A3A;}
</style>
<g id="XMLID_231_">
	<g id="XMLID_190_">
		<defs>
			<path id="XMLID_191_" d="M3.9,19.2l2.3,2.2h4.3v2.5l4.9,4.7l0,6.4l2.2,0v-6.4l4.8-4.6v-2.5h4.3l2.2-2.1c0.3,0.1,0.6,0.2,0.9,0.2
				c1.6,0,2.8-1.2,2.8-2.7c0-1.5-1.3-2.7-2.8-2.7c-1.5,0-2.8,1.2-2.8,2.7c0,0.4,0.1,0.7,0.2,1.1l-1.5,1.4h-3.4v-3.9l5.1-4.9
				c0.5,0.2,1,0.4,1.6,0.4c2,0,3.6-1.6,3.6-3.5c0-1.9-1.6-3.5-3.6-3.5c-2,0-3.6,1.6-3.6,3.5c0,0.6,0.2,1.1,0.4,1.6l-5.8,5.6V23
				l-2.5,2.4V6.8C19,6.4,20.1,5,20.1,3.5c0-1.9-1.6-3.5-3.6-3.5c-2,0-3.6,1.6-3.6,3.5c0,1.6,1.1,2.9,2.5,3.3v18.8L12.7,23v-8.5
				L6.9,8.9c0.3-0.5,0.4-1,0.4-1.6c0-1.9-1.6-3.5-3.6-3.5S0,5.4,0,7.4c0,1.9,1.6,3.5,3.6,3.5c0.6,0,1.1-0.1,1.6-0.4l5.1,4.9v3.9H7.1
				l-1.6-1.5c0.1-0.3,0.2-0.6,0.2-1c0-1.5-1.3-2.7-2.8-2.7c-1.6,0-2.8,1.2-2.8,2.7c0,1.5,1.3,2.7,2.8,2.7
				C3.2,19.4,3.6,19.4,3.9,19.2z M29.2,6c0.8,0,1.4,0.6,1.4,1.3s-0.6,1.3-1.4,1.3c-0.8,0-1.4-0.6-1.4-1.3S28.4,6,29.2,6 M3.6,8.7
				c-0.8,0-1.4-0.6-1.4-1.3S2.9,6,3.6,6C4.4,6,5,6.6,5,7.4S4.4,8.7,3.6,8.7"/>
		</defs>
		<use xlink:href="#XMLID_191_"  style="overflow:visible;fill-rule:evenodd;clip-rule:evenodd;fill:#3A3A3A;"/>
		<clipPath id="XMLID_2_">
			<use xlink:href="#XMLID_191_"  style="overflow:visible;"/>
		</clipPath>
		<rect id="XMLID_195_" x="-2.7" y="-2.7" class="st0" width="38.3" height="40.4"/>
	</g>
	<g id="XMLID_187_">
		<defs>
			<path id="XMLID_188_" d="M14.4,36.4c-0.9-0.9-2.1-1.4-3.3-1.4H5.5v2.2h5.6c0.6,0,1.3,0.3,1.7,0.7c0.9,0.9,2.2,1.4,3.4,1.4
				c1.3,0,2.5-0.5,3.5-1.4c0.5-0.5,1.1-0.7,1.7-0.7h5.4V35h-5.4c-1.2,0-2.4,0.5-3.3,1.4C17.1,37.4,15.4,37.4,14.4,36.4z"/>
		</defs>
		<use xlink:href="#XMLID_188_"  style="overflow:visible;fill-rule:evenodd;clip-rule:evenodd;fill:#3A3A3A;"/>
		<clipPath id="XMLID_3_">
			<use xlink:href="#XMLID_188_"  style="overflow:visible;"/>
		</clipPath>
		<rect id="XMLID_189_" x="2.7" y="32.2" class="st1" width="26.8" height="9.8"/>
	</g>
	<path id="XMLID_170_" class="st2" d="M43.2,8.7V3.3h1.3v2.2h2V3.3h1.3v5.5h-1.3V6.6h-2v2.1H43.2z M49.2,8.7l1.9-5.5h1.4l1.9,5.5H53
		l-0.3-1.1H51l-0.3,1.1H49.2z M51.3,6.5h1.1L52,5.5l-0.2-0.9h0c-0.1,0.4-0.2,0.7-0.2,0.9L51.3,6.5z M55.7,8.7V3.3h1.3v4.3H59V3.3
		h1.3v4.3H61v2.2h-1.2V8.7H55.7z M62.6,8.7V3.3H64v5.5H62.6z M65.6,6c0-0.8,0.3-1.5,0.8-2c0.5-0.5,1.2-0.8,2-0.8
		c0.8,0,1.5,0.3,2,0.8c0.5,0.5,0.8,1.2,0.8,2c0,0.8-0.3,1.5-0.8,2c-0.5,0.5-1.2,0.8-2,0.8c-0.8,0-1.5-0.3-2-0.8
		C65.9,7.5,65.6,6.8,65.6,6z M67,6c0,0.5,0.1,0.9,0.4,1.2c0.3,0.3,0.6,0.5,1,0.5s0.8-0.2,1-0.5C69.8,6.8,70,6.4,70,6
		c0-0.4-0.1-0.8-0.4-1.1c-0.3-0.3-0.6-0.5-1-0.5s-0.8,0.2-1,0.5C67.2,5.2,67,5.5,67,6z M73,8.7V3.3h1.3v2.2h2V3.3h1.3v5.5h-1.3V6.6
		h-2v2.1H73z M79.1,8.7l1.9-5.5h1.4l1.9,5.5h-1.4l-0.3-1.1h-1.7l-0.3,1.1H79.1z M81.1,6.5h1.1l-0.3-1.1l-0.2-0.9h0
		c-0.1,0.4-0.2,0.7-0.2,0.9L81.1,6.5z M85.1,7.6c0.2,0,0.4-0.1,0.6-0.3c0.2-0.1,0.3-0.4,0.4-0.8c0.1-0.4,0.1-0.9,0.1-1.5V3.3h3.7
		v5.5h-1.3V4.4h-1.1v0.7c0,1.3-0.2,2.3-0.6,2.8c-0.4,0.6-1,0.9-1.8,0.9V7.6z M91.9,8.7V3.3h1.3V5h0.9c0.5,0,1,0.2,1.3,0.5
		c0.3,0.4,0.5,0.8,0.5,1.4c0,0.6-0.2,1-0.5,1.4c-0.3,0.4-0.8,0.5-1.3,0.5H91.9z M93.2,7.6h0.7c0.2,0,0.4-0.1,0.5-0.2
		c0.1-0.1,0.2-0.3,0.2-0.5c0-0.2-0.1-0.4-0.2-0.5c-0.1-0.1-0.3-0.2-0.5-0.2h-0.7V7.6z M97.5,8.7V3.3h1.3v2.2h2V3.3h1.3v5.5h-1.3V6.6
		h-2v2.1H97.5z M103.5,8.7l1.9-5.5h1.4l1.9,5.5h-1.4l-0.3-1.1h-1.7l-0.3,1.1H103.5z M105.5,6.5h1.1l-0.3-1.1l-0.2-0.9h0
		c-0.1,0.4-0.2,0.7-0.2,0.9L105.5,6.5z"/>
	<path id="XMLID_157_" class="st2" d="M42.6,18.6l1.9-5.5h1.4l1.9,5.5h-1.4L46,17.4h-1.7L44,18.6H42.6z M44.6,16.4h1.1l-0.3-1.1
		l-0.2-0.9h0c-0.1,0.4-0.2,0.7-0.2,0.9L44.6,16.4z M49.1,18.6v-5.5h1.3v2.1H51l1.1-2.1h1.4l-1.5,2.6v0l1.6,2.8h-1.5L51,16.4h-0.6
		v2.2H49.1z M54.5,18.6l1.9-5.5h1.4l1.9,5.5h-1.4l-0.3-1.1h-1.7l-0.3,1.1H54.5z M56.5,16.4h1.1l-0.3-1.1l-0.2-0.9h0
		c-0.1,0.4-0.2,0.7-0.2,0.9L56.5,16.4z M60.5,17.4H61c0.5-0.8,0.7-1.8,0.7-3v-1.3h3.7v4.3h0.6v2.2h-1.2v-1.1h-3.2v1.1h-1.2V17.4z
		 M62.4,17.4h1.7v-3.2H63v0.3c0,0.5,0,1-0.1,1.6C62.8,16.6,62.6,17.1,62.4,17.4z M67.7,18.6v-5.5h3.4v1.1h-2.1v1h1.7v1.1h-1.7v1h2.2
		v1.1H67.7z M72.7,18.6l0.5-5.5h1.5l0.8,2.3l0.3,0.9h0c0.1-0.4,0.2-0.7,0.3-0.9l0.8-2.3h1.5l0.4,5.5h-1.3l-0.2-2.5
		c0-0.1,0-0.3,0-0.4c0-0.2,0-0.3,0-0.4l0-0.1h0c-0.1,0.4-0.2,0.7-0.3,0.9l-0.6,1.6h-1.1l-0.6-1.6l-0.3-0.9h0c0,0.3,0,0.6,0,0.9
		l-0.2,2.5H72.7z M80.5,18.6v-5.5h1.3v5.5H80.5z M83.3,18.6l1-1.8l0.2-0.3v0c-0.6-0.3-0.9-0.9-0.9-1.6c0-0.4,0.1-0.7,0.3-1
		c0.2-0.3,0.4-0.5,0.7-0.6c0.2-0.1,0.6-0.1,1.1-0.1h1.9v5.5h-1.3v-1.8h-0.5l-1,1.8H83.3z M85,14.9c0,0.5,0.2,0.7,0.7,0.7h0.6v-1.4
		h-0.5c-0.3,0-0.5,0.1-0.6,0.2C85.1,14.5,85,14.7,85,14.9L85,14.9z"/>
	<path id="XMLID_141_" class="st2" d="M43.2,28.4V23h1.3v2.2h2V23h1.3v5.5h-1.3v-2.1h-2v2.1H43.2z M49.2,28.4l1.9-5.5h1.4l1.9,5.5
		H53l-0.3-1.1H51l-0.3,1.1H49.2z M51.3,26.2h1.1L52,25.1l-0.2-0.9h0c-0.1,0.4-0.2,0.7-0.2,0.9L51.3,26.2z M56.8,28.5
		c-0.4,0-0.9-0.1-1.2-0.4l0.6-1c0.2,0.2,0.4,0.3,0.6,0.3c0.2,0,0.4-0.1,0.4-0.3L55,23h1.5l0.9,2l0.3,0.7h0c0.1-0.2,0.1-0.5,0.2-0.7
		l0.7-2H60l-1.6,4.1c-0.1,0.2-0.2,0.4-0.2,0.5c-0.1,0.1-0.2,0.3-0.3,0.5c-0.1,0.2-0.3,0.3-0.5,0.4C57.2,28.5,57,28.5,56.8,28.5
		L56.8,28.5z M61.3,28.4V23h1.3v2.1h0.6l1.1-2.1h1.4l-1.5,2.6v0l1.6,2.8h-1.5l-1.2-2.2h-0.6v2.2H61.3z M66.9,25.7
		c0-0.8,0.3-1.5,0.8-2c0.5-0.5,1.2-0.8,2-0.8c0.8,0,1.5,0.3,2,0.8c0.5,0.5,0.8,1.2,0.8,2c0,0.8-0.3,1.5-0.8,2
		c-0.5,0.5-1.2,0.8-2,0.8c-0.8,0-1.5-0.3-2-0.8C67.1,27.1,66.9,26.5,66.9,25.7z M68.3,25.7c0,0.5,0.1,0.9,0.4,1.2
		c0.3,0.3,0.6,0.5,1,0.5s0.8-0.2,1-0.5c0.3-0.3,0.4-0.7,0.4-1.2c0-0.4-0.1-0.8-0.4-1.1c-0.3-0.3-0.6-0.5-1-0.5s-0.8,0.2-1,0.5
		S68.3,25.2,68.3,25.7z M74.3,28.4V23h2c0.6,0,1,0.1,1.4,0.4c0.3,0.2,0.5,0.6,0.5,1.1c0,0.2-0.1,0.5-0.2,0.7
		c-0.1,0.2-0.3,0.4-0.5,0.5v0c0.3,0.1,0.5,0.2,0.6,0.5c0.1,0.2,0.2,0.5,0.2,0.8c0,0.6-0.2,1-0.6,1.2c-0.4,0.3-0.9,0.4-1.5,0.4H74.3z
		 M75.6,25.1h0.7c0.2,0,0.3,0,0.4-0.1c0.1-0.1,0.1-0.2,0.1-0.4c0-0.1,0-0.2-0.1-0.3c-0.1-0.1-0.2-0.1-0.4-0.1h-0.7V25.1z M75.6,27.3
		h0.8c0.2,0,0.3-0.1,0.4-0.2c0.1-0.1,0.2-0.2,0.2-0.4c0-0.2,0-0.3-0.1-0.4c-0.1-0.1-0.2-0.2-0.4-0.2h-0.8V27.3z M79.7,25.7
		c0-0.8,0.3-1.5,0.8-2c0.5-0.5,1.2-0.8,2-0.8c0.8,0,1.5,0.3,2,0.8c0.5,0.5,0.8,1.2,0.8,2c0,0.8-0.3,1.5-0.8,2
		c-0.5,0.5-1.2,0.8-2,0.8c-0.8,0-1.5-0.3-2-0.8C80,27.1,79.7,26.5,79.7,25.7z M81.1,25.7c0,0.5,0.1,0.9,0.4,1.2
		c0.3,0.3,0.6,0.5,1,0.5c0.4,0,0.8-0.2,1-0.5c0.3-0.3,0.4-0.7,0.4-1.2c0-0.4-0.1-0.8-0.4-1.1c-0.3-0.3-0.6-0.5-1-0.5
		c-0.4,0-0.8,0.2-1,0.5C81.3,24.8,81.1,25.2,81.1,25.7z M87.1,28.4V23h3.4v1.1h-2v4.3H87.1z M91.5,25.7c0-0.8,0.3-1.5,0.8-2
		s1.2-0.8,2-0.8c0.8,0,1.5,0.3,2,0.8c0.5,0.5,0.8,1.2,0.8,2c0,0.8-0.3,1.5-0.8,2c-0.5,0.5-1.2,0.8-2,0.8c-0.8,0-1.5-0.3-2-0.8
		C91.8,27.1,91.5,26.5,91.5,25.7z M92.9,25.7c0,0.5,0.1,0.9,0.4,1.2c0.3,0.3,0.6,0.5,1,0.5s0.8-0.2,1-0.5c0.3-0.3,0.4-0.7,0.4-1.2
		c0-0.4-0.1-0.8-0.4-1.1c-0.3-0.3-0.6-0.5-1-0.5s-0.8,0.2-1,0.5C93,24.8,92.9,25.2,92.9,25.7z"/>
	<path id="XMLID_78_" class="st2" d="M43.2,38.3v-5.5h2.3c0.5,0,1,0.2,1.3,0.5c0.3,0.4,0.5,0.8,0.5,1.4c0,0.6-0.2,1-0.5,1.4
		c-0.3,0.4-0.8,0.5-1.3,0.5h-0.9v1.7H43.2z M44.5,35.4h0.7c0.2,0,0.4-0.1,0.5-0.2c0.1-0.1,0.2-0.3,0.2-0.5c0-0.2-0.1-0.4-0.2-0.5
		c-0.1-0.1-0.3-0.2-0.5-0.2h-0.7V35.4z M48.5,35.5c0-0.8,0.3-1.5,0.8-2c0.5-0.5,1.2-0.8,2-0.8s1.5,0.3,2,0.8c0.5,0.5,0.8,1.2,0.8,2
		c0,0.8-0.3,1.5-0.8,2c-0.5,0.5-1.2,0.8-2,0.8s-1.5-0.3-2-0.8C48.8,37,48.5,36.3,48.5,35.5z M49.9,35.5c0,0.5,0.1,0.9,0.4,1.2
		c0.3,0.3,0.6,0.5,1,0.5c0.4,0,0.8-0.2,1-0.5c0.3-0.3,0.4-0.7,0.4-1.2c0-0.4-0.1-0.8-0.4-1.1c-0.3-0.3-0.6-0.5-1-0.5
		c-0.4,0-0.8,0.2-1,0.5C50,34.7,49.9,35,49.9,35.5z M57.3,38.4c-0.8,0-1.5-0.3-2-0.8l0.7-0.9c0.4,0.4,0.8,0.5,1.2,0.5
		c0.5,0,0.7-0.2,0.7-0.6c0-0.4-0.2-0.5-0.6-0.5h-0.7V35h0.5c0.2,0,0.3-0.1,0.5-0.2c0.1-0.1,0.2-0.2,0.2-0.4c0-0.2-0.1-0.3-0.2-0.4
		c-0.1-0.1-0.3-0.2-0.5-0.2c-0.4,0-0.8,0.2-1.1,0.5l-0.5-1c0.5-0.4,1.1-0.6,1.9-0.6c0.3,0,0.6,0.1,0.8,0.2c0.3,0.1,0.5,0.3,0.7,0.5
		c0.2,0.2,0.3,0.5,0.3,0.9c0,0.5-0.2,0.9-0.7,1.2v0c0.3,0.1,0.5,0.2,0.6,0.5c0.2,0.2,0.2,0.5,0.2,0.8c0,0.5-0.2,0.9-0.6,1.2
		C58.3,38.2,57.9,38.4,57.3,38.4L57.3,38.4z M61,38.3v-5.5h2c0.6,0,1,0.1,1.4,0.4c0.3,0.2,0.5,0.6,0.5,1.1c0,0.2-0.1,0.5-0.2,0.7
		c-0.1,0.2-0.3,0.4-0.5,0.5v0c0.3,0.1,0.5,0.2,0.6,0.5c0.1,0.2,0.2,0.5,0.2,0.8c0,0.6-0.2,1-0.6,1.2c-0.4,0.3-0.9,0.4-1.5,0.4H61z
		 M62.3,34.9H63c0.2,0,0.3,0,0.4-0.1c0.1-0.1,0.1-0.2,0.1-0.4c0-0.1,0-0.2-0.1-0.3c-0.1-0.1-0.2-0.1-0.4-0.1h-0.7V34.9z M62.3,37.1
		h0.8c0.2,0,0.3-0.1,0.4-0.2c0.1-0.1,0.2-0.2,0.2-0.4c0-0.2,0-0.3-0.1-0.4C63.4,36,63.3,36,63.1,36h-0.8V37.1z M66.7,38.3v-5.5h1.3
		v2.6L68,36.3h0c0.2-0.4,0.3-0.7,0.5-0.9l1.5-2.6h1.4v5.5H70v-2.5l0.1-0.9h0c-0.2,0.4-0.3,0.7-0.5,0.9l-1.5,2.5H66.7z M74.5,38.3
		v-4.3h-1.7v-1.1h4.7v1.1h-1.7v4.3H74.5z M79,38.3v-5.5h1.3v2.1h0.6l1.1-2.1h1.4L82,35.4v0l1.6,2.8H82L80.9,36h-0.6v2.2H79z"/>
	<path id="XMLID_77_" class="st2" d="M86.1,38.4c-0.4,0-0.9-0.1-1.2-0.4l0.6-1c0.2,0.2,0.4,0.3,0.6,0.3c0.2,0,0.4-0.1,0.4-0.3
		l-2.1-4.1h1.5l0.9,2l0.3,0.7h0c0.1-0.2,0.1-0.5,0.2-0.7l0.7-2h1.4l-1.6,4.1c-0.1,0.2-0.2,0.4-0.2,0.5c-0.1,0.1-0.2,0.3-0.3,0.5
		c-0.1,0.2-0.3,0.3-0.5,0.4C86.5,38.3,86.3,38.4,86.1,38.4L86.1,38.4z"/>
</g>
</svg>
