<?xml version="1.0" encoding="utf-8"?>
<!-- Generator: Adobe Illustrator 21.1.0, SVG Export Plug-In . SVG Version: 6.00 Build 0)  -->
<svg version="1.1" id="Слой_1" xmlns="http://www.w3.org/2000/svg" xmlns:xlink="http://www.w3.org/1999/xlink" x="0px" y="0px"
	 viewBox="0 0 39.6 62.8" style="enable-background:new 0 0 39.6 62.8;" xml:space="preserve">
<style type="text/css">
	.st0{fill:#FFFFFF;}
</style>
<g id="XMLID_785_">
	<g id="Group-2_4_" transform="translate(466.000000, 100.000000)">
		<g id="Logo_4_" transform="translate(225.000000, 0.000000)">
			<path id="Fill-3_4_" class="st0" d="M-686.3-89.3c-0.9,0-1.7-0.7-1.7-1.6c0-0.9,0.8-1.6,1.7-1.6c0.9,0,1.7,0.7,1.7,1.6
				C-684.6-90.1-685.3-89.3-686.3-89.3 M-655.7-92.6c0.9,0,1.7,0.7,1.7,1.6c0,0.9-0.8,1.6-1.7,1.6c-0.9,0-1.7-0.7-1.7-1.6
				C-657.4-91.9-656.7-92.6-655.7-92.6 M-686-76.4l2.7,2.7h5.1v3.1l5.8,5.7l0.1,7.9l2.7,0V-65l5.7-5.6v-3.1h5.1l2.7-2.6
				c0.3,0.1,0.7,0.2,1.1,0.2c1.9,0,3.4-1.5,3.4-3.3c0-1.8-1.5-3.3-3.4-3.3c-1.9,0-3.4,1.5-3.4,3.3c0,0.5,0.1,0.9,0.3,1.3l-1.8,1.8
				h-4v-4.7l6.2-6.1c0.6,0.3,1.3,0.5,2,0.5c2.4,0,4.4-1.9,4.4-4.3c0-2.4-2-4.3-4.4-4.3c-2.4,0-4.4,1.9-4.4,4.3
				c0,0.7,0.2,1.4,0.5,1.9l-6.9,6.8v10.5l-3,3v-22.9c1.7-0.6,3-2.2,3-4.1c0-2.4-2-4.3-4.4-4.3c-2.4,0-4.4,1.9-4.4,4.3
				c0,1.9,1.3,3.5,3,4.1v23.1l-3.2-3.1v-10.5l-6.9-6.8c0.3-0.6,0.5-1.2,0.5-1.9c0-2.4-2-4.3-4.4-4.3s-4.4,1.9-4.4,4.3
				c0,2.4,2,4.3,4.4,4.3c0.7,0,1.4-0.2,2-0.5l6.2,6.1v4.7h-4l-1.9-1.9c0.1-0.4,0.2-0.8,0.2-1.2c0-1.8-1.5-3.3-3.4-3.3
				c-1.9,0-3.4,1.5-3.4,3.3c0,1.8,1.5,3.3,3.4,3.3C-686.8-76.1-686.4-76.2-686-76.4z"/>
			<path id="Fill-5_4_" class="st0" d="M-673.1-55.3c-1.1-1.1-2.5-1.7-4-1.7h-6.8v2.7h6.8c0.8,0,1.5,0.3,2.1,0.9
				c1.2,1.2,2.7,1.7,4.2,1.7c1.5,0,3.1-0.6,4.2-1.8c0.6-0.6,1.3-0.9,2.1-0.9h6.6V-57h-6.6c-1.5,0-2.9,0.6-4,1.7
				C-669.9-54.1-671.9-54.1-673.1-55.3z"/>
		</g>
	</g>
	<g id="XMLID_786_">
		<path id="XMLID_795_" class="st0" d="M2.3,62.6v-9.9h2.4l2.7,4.6c0.1,0.2,0.2,0.4,0.4,0.7c0.1,0.3,0.2,0.5,0.3,0.7L8.3,59h0
			c-0.1-0.7-0.1-1.3-0.1-1.7v-4.6h2.4v9.9H8.2L5.4,58c-0.1-0.2-0.2-0.4-0.4-0.7c-0.1-0.3-0.2-0.5-0.3-0.7l-0.1-0.3h0
			C4.7,57,4.7,57.6,4.7,58v4.6H2.3z"/>
		<path id="XMLID_792_" class="st0" d="M11.6,62.6l3.3-9.9h2.5l3.3,9.9h-2.5l-0.6-2.1h-3.1L14,62.6H11.6z M15.2,58.6h1.9l-0.5-1.9
			L16.2,55h0c-0.1,0.7-0.3,1.3-0.4,1.7L15.2,58.6z"/>
		<path id="XMLID_790_" class="st0" d="M21.1,61.4l1.3-1.8c0.3,0.3,0.7,0.5,1.1,0.7c0.4,0.2,0.8,0.3,1.2,0.3c0.3,0,0.6-0.1,0.7-0.2
			c0.2-0.1,0.3-0.3,0.3-0.5c0-0.2-0.1-0.4-0.3-0.6c-0.2-0.2-0.5-0.3-0.8-0.5c-0.3-0.1-0.7-0.3-1-0.5c-0.4-0.2-0.7-0.4-1-0.6
			c-0.3-0.2-0.6-0.5-0.8-0.9c-0.2-0.4-0.3-0.8-0.3-1.3c0-0.9,0.3-1.6,1-2.2c0.7-0.6,1.5-0.8,2.6-0.8c1.2,0,2.2,0.4,3.1,1.1l-1,2
			c-0.3-0.2-0.6-0.5-1-0.6c-0.4-0.2-0.8-0.2-1.2-0.2c-0.3,0-0.6,0.1-0.8,0.2c-0.2,0.1-0.3,0.3-0.3,0.5c0,0.2,0.1,0.4,0.3,0.6
			c0.2,0.2,0.5,0.3,0.8,0.4c0.3,0.1,0.7,0.3,1,0.4c0.4,0.2,0.7,0.4,1,0.6c0.3,0.2,0.6,0.5,0.8,0.9c0.2,0.4,0.3,0.8,0.3,1.3
			c0,0.9-0.3,1.6-0.9,2.2c-0.6,0.6-1.5,0.9-2.6,0.9c-0.7,0-1.3-0.1-1.9-0.4C22.1,62.2,21.5,61.8,21.1,61.4z"/>
		<path id="XMLID_787_" class="st0" d="M29.6,62.6v-9.9h3.5c1.6,0,2.8,0.4,3.7,1.3c0.9,0.9,1.4,2.1,1.4,3.6c0,1.6-0.5,2.8-1.4,3.6
			c-0.9,0.9-2.1,1.3-3.7,1.3H29.6z M32,60.5h1c0.8,0,1.5-0.2,2-0.7c0.5-0.5,0.7-1.2,0.7-2.1c0-0.9-0.2-1.6-0.7-2.1
			c-0.5-0.5-1.1-0.7-2-0.7h-1V60.5z"/>
	</g>
</g>
</svg>
